
<svg version="1.1" id="Layer_1" xmlns="http://www.w3.org/2000/svg" xmlns:xlink="http://www.w3.org/1999/xlink" x="0px" y="0px"
	 width="574px" height="413.255px" viewBox="0 0 574 413.255" style="enable-background:new 0 0 574 413.255;" xml:space="preserve"
	>
<style type="text/css">
	.st0{fill:none;stroke:#000000;stroke-miterlimit:10;}

	<defs>
	<style>
		.st0
		{stroke-dasharray:2000;
		stroke-dashoffset:0;
		animation: dash 5s linear forwards infinite;
		-webkit-animation: dash 5s linear forwards infinite;
		-moz-animation: dash 5s linear forwards infinite;
		-o-animation: dash 5s linear forwards infinite;
		-ms-animation: dash 5s linear forwards infinite;}


		
		@-webkit-keyframes dash

		{
		from{stroke-dashoffset:2000;}
		to{stroke-dashoffset:0;}
		}

		@-moz-keyframes dash

		{
		from{stroke-dashoffset:2000;}
		to{stroke-dashoffset:0;}
		}
		@-o-keyframes dash

		{
		from{stroke-dashoffset:2000;}
		to{stroke-dashoffset:0;}
		}
		@-ms-keyframes dash

		{
		from{stroke-dashoffset:2000;}
		to{stroke-dashoffset:0;}
		}
		@keyframes dash

		{
		from{stroke-dashoffset:2000;}
		to{stroke-dashoffset:0;}
		}





		
	</style>


</defs>
</style>
<g>
	<path class="st0" d="M433.257,144.356c0,0,7.125-7.324,7.654-6.786c0,0,4.332-4.32,4.692-4.218c0.36,0.102,4.752-5.466,5.177-5.248
		c0.425,0.217,7.803-12.481,8.277-13.126c0,0,8.641-11.661,8.768-12.112c0.127-0.45,3.914-6.286,8.439-6.467
		c4.525-0.181,18.44-4,18.975-4.173c1.247-0.405,5.345-1.019,9.275,1.938c0,0,10.731,7.114,11.144,7.717
		c0.413,0.603,3.369,4.257,3.731,5.041c0.362,0.783,3.363,6.687,3.788,6.904s0.225,6.093-10.555-0.16c0,0-8.783-9.19-11.703-9.528
		c0,0-2.783-1.855-4.051-0.463c-1.268,1.392-8.941,4.456-11.26,3.715c0,0-3.968,6.476-5.573,6.995
		c-1.605,0.519-5.38,10.443-0.734,16.033c0,0,2.95,6.084,3.827,7.11c0,0,3.692,4.835,4.671,5.5c0,0,5.584,1.577,6.203,2.14
		s7.06,0.826,7.356,0.813c0.296-0.014,16.201,4.963,15.097,13.695c0,0,0.602,3.379-7.649-0.118c0,0-7.829-3.961-13.919-3.055
		c0,0-3.262,1.219-12.024-1.158c0,0-22.019-3.299-25.72,1.199c0,0-0.975,0.697-1.204,1.508c-0.229,0.811-11.395-1.661-19.163-6.869
		C429.006,145.977,431.767,145.86,433.257,144.356z"/>
	<path class="st0" d="M433.257,144.356c0,0-0.97-0.857-2.804-0.403c-5.094,1.264,0.832,7.042,0.832,7.042s6.74,5.404,13.407,7.967
		c6.667,2.563,9.884,3.569,11.767,1.377c1.883-2.191,0.682-3.795,0.682-3.795"/>
	<path class="st0" d="M473.134,97.377c0,0,10.173-20.189,15.676-30.953C494.313,55.66,496,48.194,496,48.194
		s1.816-2.988,3.273-1.604s3.124,4.967,2.81,7.017c-0.314,2.051-3.418,13.233-4.348,15.402c-0.931,2.168-0.321,3.799-5.292,13.482
		c0,0-2.894,10.625-3.615,11.429"/>
	<path class="st0" d="M481.82,80.297c0,0,8.702-24.411,9.259-27.074c0.557-2.663,2.581-6.662,3.931-3.558
		c1.351,3.104-15.705,35.488-15.705,35.488s4.737-16.995,5.66-21.986c0.923-4.991,2.942-10.394,4.963-6.184"/>
	<circle class="st0" cx="501.815" cy="38.683" r="4.501"/>
</g>
</svg>
