<?xml version="1.0" encoding="utf-8"?>
<!-- Generator: Adobe Illustrator 17.0.0, SVG Export Plug-In . SVG Version: 6.00 Build 0)  -->
<!DOCTYPE svg PUBLIC "-//W3C//DTD SVG 1.1//EN" "http://www.w3.org/Graphics/SVG/1.1/DTD/svg11.dtd">
<svg version="1.1" id="Layer_1" xmlns="http://www.w3.org/2000/svg" xmlns:xlink="http://www.w3.org/1999/xlink" x="0px" y="0px"
	 width="574px" height="413.255px" viewBox="0 0 574 413.255" style="enable-background:new 0 0 574 413.255;" xml:space="preserve"
	>
<style type="text/css">
	.st0{fill:#FCDA92;}
	.st1{fill:#FDE9BE;}
	.st2{fill:#B09254;}
	.st3{fill:#8F8B8E;}
	.st4{fill:#2A2A2F;}
	.st5{fill:#FFFFFF;}
	.st6{fill:#357A91;}
	.st7{fill:#D2D3D4;}
	.st8{fill:url(#SVGID_1_);}
	.st9{fill:#739593;}
	.st10{fill:#062724;}
	.st11{fill:#4C142D;}
	.st12{fill:#D41873;}
	.st13{fill:#655150;}
	.st14{fill:#524343;}
	.st15{fill:#291C25;}
	.st16{fill:#534F52;}
	.st17{fill:#475051;}
	.st18{fill:#DA1F26;}
	.st19{fill:#F4EFEF;}
	.st20{fill:#B0B0B0;}
	.st21{opacity:0.5;fill:#FFFFFF;}
	.st22{fill:#D3D4D3;}
	.st23{fill:#8C8C8C;}
	.st24{opacity:0.2;}
	.st25{fill:#5F1118;}
	.st26{fill:#901A22;}
	.st27{fill:#BE202E;}
	.st28{fill:#CB4B58;}
	.st29{fill:#EF4237;}
	.st30{fill:#F2685E;}
	.st31{fill:#F58E87;}
	.st32{fill:#F8B3AF;}
	.st33{fill:#F89521;}
	.st34{fill:#F9AA4C;}
	.st35{fill:#FAC078;}
	.st36{fill:#FBD3A5;}
	.st37{fill:#8EC641;}
	.st38{fill:#A4D065;}
	.st39{fill:#BDDB8D;}
	.st40{fill:#D2E6B3;}
	.st41{fill:#01A79D;}
	.st42{fill:#32B9B1;}
	.st43{fill:#69C8C2;}
	.st44{fill:#9CD8D5;}
	.st45{fill:#2075BC;}
	.st46{fill:#4A92C9;}
	.st47{fill:#77ACD6;}
	.st48{fill:#A4C8E3;}
</style>
<g>
	<g>
		
			<rect x="298.744" y="67.315" transform="matrix(0.9604 0.2785 -0.2785 0.9604 37.5665 -110.1572)" class="st0" width="215.516" height="19.657"/>
		
			<rect x="296.985" y="79.702" transform="matrix(0.9604 0.2785 -0.2785 0.9604 39.1868 -109.427)" class="st1" width="215.516" height="7.02"/>
	</g>
	<g>
		
			<rect x="307.029" y="38.283" transform="matrix(0.9604 0.2785 -0.2785 0.9604 23.8786 -83.8984)" class="st2" width="0.414" height="7.626"/>
		<g>
			
				<rect x="308.429" y="38.61" transform="matrix(0.9604 0.2785 -0.2785 0.9604 23.4867 -84.3521)" class="st2" width="0.414" height="3.759"/>
			
				<rect x="309.291" y="38.86" transform="matrix(0.9604 0.2785 -0.2785 0.9604 23.5904 -84.5823)" class="st2" width="0.414" height="3.759"/>
			
				<rect x="310.154" y="39.11" transform="matrix(0.9604 0.2785 -0.2785 0.9604 23.6942 -84.8126)" class="st2" width="0.414" height="3.759"/>
			
				<rect x="311.016" y="39.36" transform="matrix(0.9604 0.2785 -0.2785 0.9604 23.7979 -85.0428)" class="st2" width="0.415" height="3.759"/>
			
				<rect x="311.734" y="39.59" transform="matrix(0.9604 0.2785 -0.2785 0.9604 24.0345 -85.2132)" class="st2" width="0.415" height="4.795"/>
			
				<rect x="312.741" y="39.86" transform="matrix(0.9604 0.2785 -0.2785 0.9604 24.0054 -85.5033)" class="st2" width="0.414" height="3.759"/>
			
				<rect x="313.604" y="40.11" transform="matrix(0.9604 0.2785 -0.2785 0.9604 24.1091 -85.7336)" class="st2" width="0.413" height="3.759"/>
			
				<rect x="314.465" y="40.36" transform="matrix(0.9604 0.2785 -0.2785 0.9604 24.2129 -85.9638)" class="st2" width="0.414" height="3.759"/>
			
				<rect x="315.327" y="40.61" transform="matrix(0.9604 0.2785 -0.2785 0.9604 24.3166 -86.1941)" class="st2" width="0.415" height="3.759"/>
			
				<rect x="315.652" y="40.784" transform="matrix(0.9604 0.2785 -0.2785 0.9604 24.9162 -86.201)" class="st2" width="0.415" height="7.626"/>
		</g>
		<g>
			
				<rect x="317.183" y="41.148" transform="matrix(0.9604 0.2785 -0.2785 0.9604 24.5399 -86.6895)" class="st2" width="0.415" height="3.759"/>
			
				<rect x="318.045" y="41.398" transform="matrix(0.9604 0.2785 -0.2785 0.9604 24.6436 -86.9197)" class="st2" width="0.414" height="3.759"/>
			
				<rect x="318.908" y="41.648" transform="matrix(0.9604 0.2785 -0.2785 0.9604 24.7473 -87.15)" class="st2" width="0.413" height="3.759"/>
			
				<rect x="319.77" y="41.898" transform="matrix(0.9604 0.2785 -0.2785 0.9604 24.8511 -87.3802)" class="st2" width="0.414" height="3.759"/>
			
				<rect x="320.487" y="42.128" transform="matrix(0.9604 0.2785 -0.2785 0.9604 25.0877 -87.5506)" class="st2" width="0.415" height="4.795"/>
			
				<rect x="321.494" y="42.398" transform="matrix(0.9604 0.2785 -0.2785 0.9604 25.0586 -87.8408)" class="st2" width="0.414" height="3.759"/>
			
				<rect x="322.357" y="42.648" transform="matrix(0.9604 0.2785 -0.2785 0.9604 25.1623 -88.071)" class="st2" width="0.414" height="3.759"/>
			
				<rect x="323.219" y="42.899" transform="matrix(0.9604 0.2785 -0.2785 0.9604 25.2661 -88.3013)" class="st2" width="0.414" height="3.759"/>
			
				<rect x="324.081" y="43.149" transform="matrix(0.9604 0.2785 -0.2785 0.9604 25.3698 -88.5315)" class="st2" width="0.414" height="3.759"/>
			
				<rect x="324.405" y="43.322" transform="matrix(0.9604 0.2785 -0.2785 0.9604 25.9694 -88.5384)" class="st2" width="0.414" height="7.626"/>
		</g>
		<g>
			
				<rect x="325.936" y="43.686" transform="matrix(0.9604 0.2785 -0.2785 0.9604 25.593 -89.0268)" class="st2" width="0.415" height="3.759"/>
			
				<rect x="326.799" y="43.937" transform="matrix(0.9604 0.2785 -0.2785 0.9604 25.6968 -89.2571)" class="st2" width="0.414" height="3.759"/>
			
				<rect x="327.661" y="44.187" transform="matrix(0.9604 0.2785 -0.2785 0.9604 25.8005 -89.4873)" class="st2" width="0.414" height="3.759"/>
			
				<rect x="328.524" y="44.437" transform="matrix(0.9604 0.2785 -0.2785 0.9604 25.9043 -89.7177)" class="st2" width="0.414" height="3.759"/>
			
				<rect x="329.241" y="44.666" transform="matrix(0.9604 0.2785 -0.2785 0.9604 26.1409 -89.888)" class="st2" width="0.414" height="4.795"/>
			
				<rect x="330.248" y="44.937" transform="matrix(0.9604 0.2785 -0.2785 0.9604 26.1118 -90.1782)" class="st2" width="0.414" height="3.759"/>
			
				<rect x="331.111" y="45.187" transform="matrix(0.9604 0.2785 -0.2785 0.9604 26.2156 -90.4085)" class="st2" width="0.414" height="3.759"/>
			
				<rect x="331.973" y="45.437" transform="matrix(0.9604 0.2785 -0.2785 0.9604 26.3193 -90.6387)" class="st2" width="0.415" height="3.759"/>
			
				<rect x="332.835" y="45.687" transform="matrix(0.9604 0.2785 -0.2785 0.9604 26.4231 -90.8689)" class="st2" width="0.414" height="3.759"/>
			
				<rect x="333.159" y="45.861" transform="matrix(0.9604 0.2785 -0.2785 0.9604 27.0226 -90.8759)" class="st2" width="0.414" height="7.626"/>
		</g>
		<g>
			
				<rect x="334.69" y="46.225" transform="matrix(0.9604 0.2785 -0.2785 0.9604 26.6462 -91.3642)" class="st2" width="0.414" height="3.759"/>
			
				<rect x="335.552" y="46.475" transform="matrix(0.9604 0.2785 -0.2785 0.9604 26.75 -91.5946)" class="st2" width="0.414" height="3.759"/>
			
				<rect x="336.415" y="46.725" transform="matrix(0.9604 0.2785 -0.2785 0.9604 26.8538 -91.8249)" class="st2" width="0.414" height="3.759"/>
			
				<rect x="337.277" y="46.975" transform="matrix(0.9604 0.2785 -0.2785 0.9604 26.9575 -92.0551)" class="st2" width="0.415" height="3.759"/>
			
				<rect x="337.995" y="47.204" transform="matrix(0.9604 0.2785 -0.2785 0.9604 27.1941 -92.2255)" class="st2" width="0.414" height="4.795"/>
			
				<rect x="339.002" y="47.475" transform="matrix(0.9604 0.2785 -0.2785 0.9604 27.165 -92.5157)" class="st2" width="0.414" height="3.759"/>
			
				<rect x="339.864" y="47.725" transform="matrix(0.9604 0.2785 -0.2785 0.9604 27.2688 -92.7458)" class="st2" width="0.414" height="3.759"/>
			
				<rect x="340.726" y="47.975" transform="matrix(0.9604 0.2785 -0.2785 0.9604 27.3725 -92.9762)" class="st2" width="0.414" height="3.759"/>
			
				<rect x="341.588" y="48.225" transform="matrix(0.9604 0.2785 -0.2785 0.9604 27.4763 -93.2064)" class="st2" width="0.415" height="3.759"/>
			
				<rect x="341.913" y="48.399" transform="matrix(0.9604 0.2785 -0.2785 0.9604 28.0758 -93.2133)" class="st2" width="0.414" height="7.626"/>
		</g>
		<g>
			
				<rect x="343.444" y="48.763" transform="matrix(0.9604 0.2785 -0.2785 0.9604 27.6995 -93.7017)" class="st2" width="0.414" height="3.759"/>
			
				<rect x="344.306" y="49.013" transform="matrix(0.9604 0.2785 -0.2785 0.9604 27.8032 -93.932)" class="st2" width="0.414" height="3.759"/>
			
				<rect x="345.168" y="49.263" transform="matrix(0.9604 0.2785 -0.2785 0.9604 27.907 -94.1622)" class="st2" width="0.414" height="3.759"/>
			
				<rect x="346.031" y="49.513" transform="matrix(0.9604 0.2785 -0.2785 0.9604 28.0107 -94.3925)" class="st2" width="0.414" height="3.759"/>
			
				<rect x="346.748" y="49.743" transform="matrix(0.9604 0.2785 -0.2785 0.9604 28.2473 -94.5629)" class="st2" width="0.415" height="4.795"/>
			
				<rect x="347.755" y="50.013" transform="matrix(0.9604 0.2785 -0.2785 0.9604 28.2183 -94.8531)" class="st2" width="0.415" height="3.759"/>
			
				<rect x="348.618" y="50.263" transform="matrix(0.9604 0.2785 -0.2785 0.9604 28.322 -95.0833)" class="st2" width="0.414" height="3.759"/>
			
				<rect x="349.48" y="50.513" transform="matrix(0.9604 0.2785 -0.2785 0.9604 28.4257 -95.3135)" class="st2" width="0.413" height="3.759"/>
			
				<rect x="350.342" y="50.763" transform="matrix(0.9604 0.2785 -0.2785 0.9604 28.5295 -95.5438)" class="st2" width="0.414" height="3.759"/>
			
				<rect x="350.666" y="50.937" transform="matrix(0.9604 0.2785 -0.2785 0.9604 29.129 -95.5506)" class="st2" width="0.415" height="7.626"/>
		</g>
		<g>
			
				<rect x="352.197" y="51.301" transform="matrix(0.9604 0.2785 -0.2785 0.9604 28.7527 -96.0391)" class="st2" width="0.415" height="3.759"/>
			
				<rect x="353.06" y="51.551" transform="matrix(0.9604 0.2785 -0.2785 0.9604 28.8565 -96.2694)" class="st2" width="0.415" height="3.759"/>
			
				<rect x="353.922" y="51.801" transform="matrix(0.9604 0.2785 -0.2785 0.9604 28.9602 -96.4997)" class="st2" width="0.414" height="3.759"/>
			
				<rect x="354.785" y="52.051" transform="matrix(0.9604 0.2785 -0.2785 0.9604 29.0639 -96.7299)" class="st2" width="0.413" height="3.759"/>
			
				<rect x="355.502" y="52.281" transform="matrix(0.9604 0.2785 -0.2785 0.9604 29.3005 -96.9003)" class="st2" width="0.414" height="4.795"/>
			
				<rect x="356.509" y="52.552" transform="matrix(0.9604 0.2785 -0.2785 0.9604 29.2715 -97.1905)" class="st2" width="0.414" height="3.759"/>
			
				<rect x="357.371" y="52.802" transform="matrix(0.9604 0.2785 -0.2785 0.9604 29.3752 -97.4207)" class="st2" width="0.415" height="3.759"/>
			
				<rect x="358.234" y="53.052" transform="matrix(0.9604 0.2785 -0.2785 0.9604 29.479 -97.651)" class="st2" width="0.414" height="3.759"/>
			
				<rect x="359.096" y="53.302" transform="matrix(0.9604 0.2785 -0.2785 0.9604 29.5827 -97.8813)" class="st2" width="0.414" height="3.759"/>
			
				<rect x="359.419" y="53.475" transform="matrix(0.9604 0.2785 -0.2785 0.9604 30.1822 -97.888)" class="st2" width="0.414" height="7.626"/>
		</g>
		<g>
			
				<rect x="360.951" y="53.84" transform="matrix(0.9604 0.2785 -0.2785 0.9604 29.8059 -98.3765)" class="st2" width="0.414" height="3.759"/>
			
				<rect x="361.813" y="54.09" transform="matrix(0.9604 0.2785 -0.2785 0.9604 29.9097 -98.6069)" class="st2" width="0.414" height="3.759"/>
			
				<rect x="362.675" y="54.34" transform="matrix(0.9604 0.2785 -0.2785 0.9604 30.0134 -98.8371)" class="st2" width="0.415" height="3.759"/>
			
				<rect x="363.538" y="54.59" transform="matrix(0.9604 0.2785 -0.2785 0.9604 30.1171 -99.0673)" class="st2" width="0.415" height="3.759"/>
			
				<rect x="364.256" y="54.819" transform="matrix(0.9604 0.2785 -0.2785 0.9604 30.3538 -99.2378)" class="st2" width="0.414" height="4.795"/>
			
				<rect x="365.262" y="55.09" transform="matrix(0.9604 0.2785 -0.2785 0.9604 30.3247 -99.5279)" class="st2" width="0.415" height="3.759"/>
			
				<rect x="366.125" y="55.34" transform="matrix(0.9604 0.2785 -0.2785 0.9604 30.4284 -99.7581)" class="st2" width="0.414" height="3.759"/>
			
				<rect x="366.987" y="55.59" transform="matrix(0.9604 0.2785 -0.2785 0.9604 30.5322 -99.9885)" class="st2" width="0.414" height="3.759"/>
			
				<rect x="367.849" y="55.84" transform="matrix(0.9604 0.2785 -0.2785 0.9604 30.6359 -100.2187)" class="st2" width="0.415" height="3.759"/>
			
				<rect x="368.173" y="56.013" transform="matrix(0.9604 0.2785 -0.2785 0.9604 31.2354 -100.2255)" class="st2" width="0.415" height="7.626"/>
		</g>
		<g>
			
				<rect x="369.704" y="56.378" transform="matrix(0.9604 0.2785 -0.2785 0.9604 30.8591 -100.714)" class="st2" width="0.414" height="3.759"/>
			
				<rect x="370.566" y="56.628" transform="matrix(0.9604 0.2785 -0.2785 0.9604 30.9628 -100.9441)" class="st2" width="0.416" height="3.759"/>
			
				<rect x="371.429" y="56.878" transform="matrix(0.9604 0.2785 -0.2785 0.9604 31.0666 -101.1745)" class="st2" width="0.414" height="3.759"/>
			
				<rect x="372.292" y="57.128" transform="matrix(0.9604 0.2785 -0.2785 0.9604 31.1704 -101.4048)" class="st2" width="0.414" height="3.759"/>
			
				<rect x="373.009" y="57.358" transform="matrix(0.9604 0.2785 -0.2785 0.9604 31.407 -101.5752)" class="st2" width="0.415" height="4.795"/>
			
				<rect x="374.016" y="57.628" transform="matrix(0.9604 0.2785 -0.2785 0.9604 31.3778 -101.8652)" class="st2" width="0.415" height="3.759"/>
			
				<rect x="374.878" y="57.878" transform="matrix(0.9604 0.2785 -0.2785 0.9604 31.4816 -102.0956)" class="st2" width="0.415" height="3.759"/>
			
				<rect x="375.741" y="58.128" transform="matrix(0.9604 0.2785 -0.2785 0.9604 31.5854 -102.3258)" class="st2" width="0.413" height="3.759"/>
			
				<rect x="376.603" y="58.378" transform="matrix(0.9604 0.2785 -0.2785 0.9604 31.6891 -102.5561)" class="st2" width="0.414" height="3.759"/>
			
				<rect x="376.927" y="58.552" transform="matrix(0.9604 0.2785 -0.2785 0.9604 32.2887 -102.563)" class="st2" width="0.415" height="7.626"/>
		</g>
		<g>
			
				<rect x="378.458" y="58.916" transform="matrix(0.9604 0.2785 -0.2785 0.9604 31.9123 -103.0514)" class="st2" width="0.415" height="3.759"/>
			
				<rect x="379.32" y="59.166" transform="matrix(0.9604 0.2785 -0.2785 0.9604 32.016 -103.2816)" class="st2" width="0.415" height="3.759"/>
			
				<rect x="380.182" y="59.416" transform="matrix(0.9604 0.2785 -0.2785 0.9604 32.1198 -103.5119)" class="st2" width="0.415" height="3.759"/>
			
				<rect x="381.045" y="59.666" transform="matrix(0.9604 0.2785 -0.2785 0.9604 32.2236 -103.7422)" class="st2" width="0.413" height="3.759"/>
			
				<rect x="381.763" y="59.896" transform="matrix(0.9604 0.2785 -0.2785 0.9604 32.4602 -103.9126)" class="st2" width="0.414" height="4.795"/>
			
				<rect x="382.769" y="60.166" transform="matrix(0.9604 0.2785 -0.2785 0.9604 32.4311 -104.2027)" class="st2" width="0.415" height="3.759"/>
			
				<rect x="383.632" y="60.416" transform="matrix(0.9604 0.2785 -0.2785 0.9604 32.5349 -104.4331)" class="st2" width="0.415" height="3.759"/>
			
				<rect x="384.494" y="60.666" transform="matrix(0.9604 0.2785 -0.2785 0.9604 32.6386 -104.6632)" class="st2" width="0.415" height="3.759"/>
			
				<rect x="385.357" y="60.916" transform="matrix(0.9604 0.2785 -0.2785 0.9604 32.7423 -104.8935)" class="st2" width="0.414" height="3.759"/>
			
				<rect x="385.68" y="61.09" transform="matrix(0.9604 0.2785 -0.2785 0.9604 33.3418 -104.9003)" class="st2" width="0.415" height="7.626"/>
		</g>
		<g>
			
				<rect x="387.211" y="61.454" transform="matrix(0.9604 0.2785 -0.2785 0.9604 32.9655 -105.3887)" class="st2" width="0.415" height="3.759"/>
			
				<rect x="388.074" y="61.704" transform="matrix(0.9604 0.2785 -0.2785 0.9604 33.0692 -105.619)" class="st2" width="0.414" height="3.759"/>
			
				<rect x="388.936" y="61.955" transform="matrix(0.9604 0.2785 -0.2785 0.9604 33.1731 -105.8494)" class="st2" width="0.415" height="3.759"/>
			
				<rect x="389.798" y="62.204" transform="matrix(0.9604 0.2785 -0.2785 0.9604 33.2768 -106.0796)" class="st2" width="0.415" height="3.759"/>
			
				<rect x="390.517" y="62.434" transform="matrix(0.9604 0.2785 -0.2785 0.9604 33.5134 -106.25)" class="st2" width="0.414" height="4.795"/>
			
				<rect x="391.522" y="62.704" transform="matrix(0.9604 0.2785 -0.2785 0.9604 33.4842 -106.54)" class="st2" width="0.415" height="3.759"/>
			
				<rect x="392.386" y="62.955" transform="matrix(0.9604 0.2785 -0.2785 0.9604 33.5881 -106.7704)" class="st2" width="0.414" height="3.759"/>
			
				<rect x="393.248" y="63.205" transform="matrix(0.9604 0.2785 -0.2785 0.9604 33.6918 -107.0007)" class="st2" width="0.415" height="3.759"/>
			
				<rect x="394.11" y="63.455" transform="matrix(0.9604 0.2785 -0.2785 0.9604 33.7956 -107.2309)" class="st2" width="0.414" height="3.759"/>
			
				<rect x="394.434" y="63.628" transform="matrix(0.9604 0.2785 -0.2785 0.9604 34.3951 -107.2378)" class="st2" width="0.415" height="7.626"/>
		</g>
		<g>
			
				<rect x="395.965" y="63.993" transform="matrix(0.9604 0.2785 -0.2785 0.9604 34.0187 -107.7263)" class="st2" width="0.415" height="3.759"/>
			
				<rect x="396.827" y="64.242" transform="matrix(0.9604 0.2785 -0.2785 0.9604 34.1224 -107.9564)" class="st2" width="0.415" height="3.759"/>
			
				<rect x="397.689" y="64.493" transform="matrix(0.9604 0.2785 -0.2785 0.9604 34.2262 -108.1867)" class="st2" width="0.415" height="3.759"/>
			
				<rect x="398.552" y="64.743" transform="matrix(0.9604 0.2785 -0.2785 0.9604 34.33 -108.417)" class="st2" width="0.414" height="3.759"/>
			
				<rect x="399.27" y="64.972" transform="matrix(0.9604 0.2785 -0.2785 0.9604 34.5666 -108.5873)" class="st2" width="0.413" height="4.795"/>
			
				<rect x="400.277" y="65.243" transform="matrix(0.9604 0.2785 -0.2785 0.9604 34.5375 -108.8776)" class="st2" width="0.415" height="3.759"/>
			
				<rect x="401.139" y="65.493" transform="matrix(0.9604 0.2785 -0.2785 0.9604 34.6413 -109.1079)" class="st2" width="0.415" height="3.759"/>
			
				<rect x="402.001" y="65.743" transform="matrix(0.9604 0.2785 -0.2785 0.9604 34.745 -109.338)" class="st2" width="0.415" height="3.759"/>
			
				<rect x="402.863" y="65.993" transform="matrix(0.9604 0.2785 -0.2785 0.9604 34.8487 -109.5682)" class="st2" width="0.414" height="3.759"/>
			
				<rect x="403.188" y="66.166" transform="matrix(0.9604 0.2785 -0.2785 0.9604 35.4483 -109.5752)" class="st2" width="0.414" height="7.626"/>
		</g>
		<g>
			
				<rect x="404.719" y="66.531" transform="matrix(0.9604 0.2785 -0.2785 0.9604 35.0719 -110.0636)" class="st2" width="0.413" height="3.759"/>
			
				<rect x="405.581" y="66.781" transform="matrix(0.9604 0.2785 -0.2785 0.9604 35.1757 -110.2939)" class="st2" width="0.415" height="3.759"/>
			
				<rect x="406.443" y="67.031" transform="matrix(0.9604 0.2785 -0.2785 0.9604 35.2794 -110.5242)" class="st2" width="0.415" height="3.759"/>
			
				<rect x="407.305" y="67.281" transform="matrix(0.9604 0.2785 -0.2785 0.9604 35.3832 -110.7544)" class="st2" width="0.415" height="3.759"/>
			
				<rect x="408.023" y="67.51" transform="matrix(0.9604 0.2785 -0.2785 0.9604 35.6197 -110.9247)" class="st2" width="0.414" height="4.795"/>
			
				<rect x="409.03" y="67.781" transform="matrix(0.9604 0.2785 -0.2785 0.9604 35.5907 -111.2149)" class="st2" width="0.414" height="3.759"/>
			
				<rect x="409.892" y="68.031" transform="matrix(0.9604 0.2785 -0.2785 0.9604 35.6945 -111.4453)" class="st2" width="0.416" height="3.759"/>
			
				<rect x="410.755" y="68.281" transform="matrix(0.9604 0.2785 -0.2785 0.9604 35.7982 -111.6755)" class="st2" width="0.415" height="3.759"/>
			
				<rect x="411.617" y="68.531" transform="matrix(0.9604 0.2785 -0.2785 0.9604 35.902 -111.9058)" class="st2" width="0.414" height="3.759"/>
			
				<rect x="411.941" y="68.705" transform="matrix(0.9604 0.2785 -0.2785 0.9604 36.5015 -111.9126)" class="st2" width="0.415" height="7.626"/>
		</g>
		<g>
			
				<rect x="413.472" y="69.069" transform="matrix(0.9604 0.2785 -0.2785 0.9604 36.1251 -112.401)" class="st2" width="0.414" height="3.759"/>
			
				<rect x="414.335" y="69.319" transform="matrix(0.9604 0.2785 -0.2785 0.9604 36.2289 -112.6313)" class="st2" width="0.414" height="3.759"/>
			
				<rect x="415.196" y="69.569" transform="matrix(0.9604 0.2785 -0.2785 0.9604 36.3326 -112.8615)" class="st2" width="0.415" height="3.759"/>
			
				<rect x="416.059" y="69.819" transform="matrix(0.9604 0.2785 -0.2785 0.9604 36.4364 -113.0918)" class="st2" width="0.414" height="3.759"/>
			
				<rect x="416.777" y="70.049" transform="matrix(0.9604 0.2785 -0.2785 0.9604 36.673 -113.2623)" class="st2" width="0.414" height="4.795"/>
			
				<rect x="417.783" y="70.319" transform="matrix(0.9604 0.2785 -0.2785 0.9604 36.6439 -113.5523)" class="st2" width="0.415" height="3.759"/>
			
				<rect x="418.646" y="70.569" transform="matrix(0.9604 0.2785 -0.2785 0.9604 36.7476 -113.7826)" class="st2" width="0.414" height="3.759"/>
			
				<rect x="419.509" y="70.819" transform="matrix(0.9604 0.2785 -0.2785 0.9604 36.8514 -114.0129)" class="st2" width="0.414" height="3.759"/>
			
				<rect x="420.371" y="71.069" transform="matrix(0.9604 0.2785 -0.2785 0.9604 36.9552 -114.2431)" class="st2" width="0.413" height="3.759"/>
			
				<rect x="420.695" y="71.243" transform="matrix(0.9604 0.2785 -0.2785 0.9604 37.5547 -114.2501)" class="st2" width="0.415" height="7.626"/>
		</g>
		<g>
			
				<rect x="422.226" y="71.607" transform="matrix(0.9604 0.2785 -0.2785 0.9604 37.1783 -114.7385)" class="st2" width="0.415" height="3.759"/>
			
				<rect x="423.088" y="71.857" transform="matrix(0.9604 0.2785 -0.2785 0.9604 37.2821 -114.9687)" class="st2" width="0.415" height="3.759"/>
			
				<rect x="423.95" y="72.107" transform="matrix(0.9604 0.2785 -0.2785 0.9604 37.3858 -115.1989)" class="st2" width="0.414" height="3.759"/>
			
				<rect x="424.813" y="72.357" transform="matrix(0.9604 0.2785 -0.2785 0.9604 37.4896 -115.4293)" class="st2" width="0.414" height="3.759"/>
			
				<rect x="425.531" y="72.587" transform="matrix(0.9604 0.2785 -0.2785 0.9604 37.7262 -115.5997)" class="st2" width="0.413" height="4.795"/>
			
				<rect x="426.538" y="72.858" transform="matrix(0.9604 0.2785 -0.2785 0.9604 37.6971 -115.8898)" class="st2" width="0.414" height="3.759"/>
			
				<rect x="427.399" y="73.108" transform="matrix(0.9604 0.2785 -0.2785 0.9604 37.8008 -116.12)" class="st2" width="0.415" height="3.759"/>
			
				<rect x="428.262" y="73.358" transform="matrix(0.9604 0.2785 -0.2785 0.9604 37.9046 -116.3503)" class="st2" width="0.414" height="3.759"/>
			
				<rect x="429.124" y="73.608" transform="matrix(0.9604 0.2785 -0.2785 0.9604 38.0083 -116.5805)" class="st2" width="0.414" height="3.759"/>
			
				<rect x="429.449" y="73.781" transform="matrix(0.9604 0.2785 -0.2785 0.9604 38.6079 -116.5874)" class="st2" width="0.413" height="7.626"/>
		</g>
		<g>
			
				<rect x="430.98" y="74.146" transform="matrix(0.9604 0.2785 -0.2785 0.9604 38.2316 -117.0759)" class="st2" width="0.413" height="3.759"/>
			
				<rect x="431.842" y="74.396" transform="matrix(0.9604 0.2785 -0.2785 0.9604 38.3353 -117.3061)" class="st2" width="0.414" height="3.759"/>
			
				<rect x="432.704" y="74.646" transform="matrix(0.9604 0.2785 -0.2785 0.9604 38.439 -117.5363)" class="st2" width="0.415" height="3.759"/>
			
				<rect x="433.566" y="74.896" transform="matrix(0.9604 0.2785 -0.2785 0.9604 38.5428 -117.7667)" class="st2" width="0.414" height="3.759"/>
			
				<rect x="434.284" y="75.125" transform="matrix(0.9604 0.2785 -0.2785 0.9604 38.7794 -117.937)" class="st2" width="0.414" height="4.795"/>
			
				<rect x="435.291" y="75.396" transform="matrix(0.9604 0.2785 -0.2785 0.9604 38.7503 -118.2271)" class="st2" width="0.413" height="3.759"/>
			
				<rect x="436.153" y="75.646" transform="matrix(0.9604 0.2785 -0.2785 0.9604 38.854 -118.4574)" class="st2" width="0.414" height="3.759"/>
			
				<rect x="437.016" y="75.896" transform="matrix(0.9604 0.2785 -0.2785 0.9604 38.9578 -118.6878)" class="st2" width="0.414" height="3.759"/>
			
				<rect x="437.878" y="76.146" transform="matrix(0.9604 0.2785 -0.2785 0.9604 39.0616 -118.918)" class="st2" width="0.415" height="3.759"/>
			
				<rect x="438.202" y="76.32" transform="matrix(0.9604 0.2785 -0.2785 0.9604 39.6611 -118.9249)" class="st2" width="0.414" height="7.626"/>
		</g>
		<g>
			
				<rect x="439.733" y="76.684" transform="matrix(0.9604 0.2785 -0.2785 0.9604 39.2847 -119.4133)" class="st2" width="0.414" height="3.759"/>
			
				<rect x="440.596" y="76.934" transform="matrix(0.9604 0.2785 -0.2785 0.9604 39.3885 -119.6436)" class="st2" width="0.414" height="3.759"/>
			
				<rect x="441.457" y="77.184" transform="matrix(0.9604 0.2785 -0.2785 0.9604 39.4922 -119.8738)" class="st2" width="0.414" height="3.759"/>
			
				<rect x="442.32" y="77.434" transform="matrix(0.9604 0.2785 -0.2785 0.9604 39.596 -120.1041)" class="st2" width="0.414" height="3.759"/>
			
				<rect x="443.038" y="77.664" transform="matrix(0.9604 0.2785 -0.2785 0.9604 39.8326 -120.2745)" class="st2" width="0.415" height="4.795"/>
			
				<rect x="444.044" y="77.934" transform="matrix(0.9604 0.2785 -0.2785 0.9604 39.8035 -120.5645)" class="st2" width="0.414" height="3.759"/>
			
				<rect x="444.907" y="78.184" transform="matrix(0.9604 0.2785 -0.2785 0.9604 39.9073 -120.7949)" class="st2" width="0.414" height="3.759"/>
			
				<rect x="445.77" y="78.434" transform="matrix(0.9604 0.2785 -0.2785 0.9604 40.0111 -121.0252)" class="st2" width="0.414" height="3.759"/>
			
				<rect x="446.631" y="78.684" transform="matrix(0.9604 0.2785 -0.2785 0.9604 40.1148 -121.2554)" class="st2" width="0.415" height="3.759"/>
			
				<rect x="446.956" y="78.858" transform="matrix(0.9604 0.2785 -0.2785 0.9604 40.7143 -121.2623)" class="st2" width="0.414" height="7.626"/>
		</g>
		<g>
			
				<rect x="448.486" y="79.222" transform="matrix(0.9604 0.2785 -0.2785 0.9604 40.338 -121.7507)" class="st2" width="0.415" height="3.759"/>
			
				<rect x="449.349" y="79.472" transform="matrix(0.9604 0.2785 -0.2785 0.9604 40.4417 -121.9809)" class="st2" width="0.414" height="3.759"/>
			
				<rect x="450.212" y="79.722" transform="matrix(0.9604 0.2785 -0.2785 0.9604 40.5455 -122.2113)" class="st2" width="0.414" height="3.759"/>
			
				<rect x="451.074" y="79.972" transform="matrix(0.9604 0.2785 -0.2785 0.9604 40.6493 -122.4416)" class="st2" width="0.414" height="3.759"/>
			
				<rect x="451.791" y="80.202" transform="matrix(0.9604 0.2785 -0.2785 0.9604 40.8858 -122.6118)" class="st2" width="0.414" height="4.795"/>
			
				<rect x="452.798" y="80.472" transform="matrix(0.9604 0.2785 -0.2785 0.9604 40.8568 -122.9021)" class="st2" width="0.414" height="3.759"/>
			
				<rect x="453.66" y="80.722" transform="matrix(0.9604 0.2785 -0.2785 0.9604 40.9605 -123.1322)" class="st2" width="0.415" height="3.759"/>
			
				<rect x="454.523" y="80.972" transform="matrix(0.9604 0.2785 -0.2785 0.9604 41.0643 -123.3626)" class="st2" width="0.414" height="3.759"/>
			
				<rect x="455.385" y="81.222" transform="matrix(0.9604 0.2785 -0.2785 0.9604 41.168 -123.5928)" class="st2" width="0.414" height="3.759"/>
			
				<rect x="455.71" y="81.396" transform="matrix(0.9604 0.2785 -0.2785 0.9604 41.7676 -123.5998)" class="st2" width="0.413" height="7.626"/>
		</g>
	</g>
	<g>
		
			<rect x="457.24" y="81.76" transform="matrix(0.9604 0.2785 -0.2785 0.9604 41.3911 -124.088)" class="st2" width="0.414" height="3.759"/>
		
			<rect x="458.103" y="82.01" transform="matrix(0.9604 0.2785 -0.2785 0.9604 41.495 -124.3185)" class="st2" width="0.414" height="3.759"/>
		
			<rect x="458.964" y="82.26" transform="matrix(0.9604 0.2785 -0.2785 0.9604 41.5987 -124.5486)" class="st2" width="0.415" height="3.759"/>
		
			<rect x="459.827" y="82.511" transform="matrix(0.9604 0.2785 -0.2785 0.9604 41.7025 -124.7791)" class="st2" width="0.415" height="3.759"/>
		
			<rect x="460.545" y="82.74" transform="matrix(0.9604 0.2785 -0.2785 0.9604 41.9391 -124.9493)" class="st2" width="0.414" height="4.795"/>
		
			<rect x="461.552" y="83.011" transform="matrix(0.9604 0.2785 -0.2785 0.9604 41.9099 -125.2395)" class="st2" width="0.414" height="3.759"/>
		
			<rect x="462.414" y="83.261" transform="matrix(0.9604 0.2785 -0.2785 0.9604 42.0137 -125.4697)" class="st2" width="0.414" height="3.759"/>
		
			<rect x="463.276" y="83.511" transform="matrix(0.9604 0.2785 -0.2785 0.9604 42.1174 -125.7)" class="st2" width="0.414" height="3.759"/>
		
			<rect x="464.139" y="83.761" transform="matrix(0.9604 0.2785 -0.2785 0.9604 42.2212 -125.9303)" class="st2" width="0.415" height="3.759"/>
		
			<rect x="464.463" y="83.934" transform="matrix(0.9604 0.2785 -0.2785 0.9604 42.8207 -125.9371)" class="st2" width="0.414" height="7.626"/>
	</g>
	<g>
		
			<rect x="465.994" y="84.299" transform="matrix(0.9604 0.2785 -0.2785 0.9604 42.4444 -126.4256)" class="st2" width="0.414" height="3.759"/>
		
			<rect x="466.856" y="84.549" transform="matrix(0.9604 0.2785 -0.2785 0.9604 42.5481 -126.6558)" class="st2" width="0.414" height="3.759"/>
		
			<rect x="467.718" y="84.799" transform="matrix(0.9604 0.2785 -0.2785 0.9604 42.6519 -126.8861)" class="st2" width="0.414" height="3.759"/>
		
			<rect x="468.58" y="85.049" transform="matrix(0.9604 0.2785 -0.2785 0.9604 42.7556 -127.1162)" class="st2" width="0.415" height="3.759"/>
		
			<rect x="469.299" y="85.278" transform="matrix(0.9604 0.2785 -0.2785 0.9604 42.9923 -127.2868)" class="st2" width="0.415" height="4.795"/>
		
			<rect x="470.305" y="85.549" transform="matrix(0.9604 0.2785 -0.2785 0.9604 42.9631 -127.5768)" class="st2" width="0.414" height="3.759"/>
		
			<rect x="471.168" y="85.799" transform="matrix(0.9604 0.2785 -0.2785 0.9604 43.067 -127.8073)" class="st2" width="0.414" height="3.759"/>
		
			<rect x="472.03" y="86.049" transform="matrix(0.9604 0.2785 -0.2785 0.9604 43.1706 -128.0373)" class="st2" width="0.414" height="3.759"/>
		
			<rect x="472.893" y="86.299" transform="matrix(0.9604 0.2785 -0.2785 0.9604 43.2745 -128.2678)" class="st2" width="0.414" height="3.759"/>
		
			<rect x="473.216" y="86.473" transform="matrix(0.9604 0.2785 -0.2785 0.9604 43.8739 -128.2745)" class="st2" width="0.415" height="7.626"/>
	</g>
	<g>
		
			<rect x="474.747" y="86.837" transform="matrix(0.9604 0.2785 -0.2785 0.9604 43.4976 -128.763)" class="st2" width="0.415" height="3.759"/>
		
			<rect x="475.61" y="87.087" transform="matrix(0.9604 0.2785 -0.2785 0.9604 43.6013 -128.9932)" class="st2" width="0.414" height="3.759"/>
		
			<rect x="476.473" y="87.337" transform="matrix(0.9604 0.2785 -0.2785 0.9604 43.7052 -129.2236)" class="st2" width="0.414" height="3.759"/>
		
			<rect x="477.334" y="87.587" transform="matrix(0.9604 0.2785 -0.2785 0.9604 43.8088 -129.4537)" class="st2" width="0.414" height="3.759"/>
		
			<rect x="478.052" y="87.817" transform="matrix(0.9604 0.2785 -0.2785 0.9604 44.0455 -129.6242)" class="st2" width="0.415" height="4.795"/>
		
			<rect x="479.059" y="88.087" transform="matrix(0.9604 0.2785 -0.2785 0.9604 44.0164 -129.9143)" class="st2" width="0.415" height="3.759"/>
		
			<rect x="479.921" y="88.337" transform="matrix(0.9604 0.2785 -0.2785 0.9604 44.1201 -130.1445)" class="st2" width="0.414" height="3.759"/>
		
			<rect x="480.784" y="88.587" transform="matrix(0.9604 0.2785 -0.2785 0.9604 44.2239 -130.3749)" class="st2" width="0.414" height="3.759"/>
		
			<rect x="481.646" y="88.837" transform="matrix(0.9604 0.2785 -0.2785 0.9604 44.3276 -130.6051)" class="st2" width="0.414" height="3.759"/>
		
			<rect x="481.97" y="89.011" transform="matrix(0.9604 0.2785 -0.2785 0.9604 44.9272 -130.612)" class="st2" width="0.414" height="7.626"/>
	</g>
	<g>
		
			<rect x="483.501" y="89.375" transform="matrix(0.9604 0.2785 -0.2785 0.9604 44.5508 -131.1003)" class="st2" width="0.414" height="3.759"/>
		
			<rect x="484.363" y="89.625" transform="matrix(0.9604 0.2785 -0.2785 0.9604 44.6546 -131.3307)" class="st2" width="0.415" height="3.759"/>
		
			<rect x="485.225" y="89.875" transform="matrix(0.9604 0.2785 -0.2785 0.9604 44.7583 -131.5609)" class="st2" width="0.415" height="3.759"/>
		
			<rect x="486.088" y="90.125" transform="matrix(0.9604 0.2785 -0.2785 0.9604 44.8621 -131.7912)" class="st2" width="0.415" height="3.759"/>
		
			<rect x="486.806" y="90.355" transform="matrix(0.9604 0.2785 -0.2785 0.9604 45.0987 -131.9617)" class="st2" width="0.414" height="4.795"/>
		
			<rect x="487.813" y="90.625" transform="matrix(0.9604 0.2785 -0.2785 0.9604 45.0696 -132.2518)" class="st2" width="0.414" height="3.759"/>
		
			<rect x="488.675" y="90.875" transform="matrix(0.9604 0.2785 -0.2785 0.9604 45.1733 -132.482)" class="st2" width="0.414" height="3.759"/>
		
			<rect x="489.537" y="91.125" transform="matrix(0.9604 0.2785 -0.2785 0.9604 45.277 -132.7122)" class="st2" width="0.415" height="3.759"/>
		
			<rect x="490.399" y="91.376" transform="matrix(0.9604 0.2785 -0.2785 0.9604 45.3808 -132.9425)" class="st2" width="0.416" height="3.759"/>
		
			<rect x="490.723" y="91.549" transform="matrix(0.9604 0.2785 -0.2785 0.9604 45.9803 -132.9493)" class="st2" width="0.415" height="7.626"/>
	</g>
	<g>
		
			<rect x="492.255" y="91.913" transform="matrix(0.9604 0.2785 -0.2785 0.9604 45.604 -133.4379)" class="st2" width="0.414" height="3.759"/>
		
			<rect x="493.117" y="92.164" transform="matrix(0.9604 0.2785 -0.2785 0.9604 45.7078 -133.6681)" class="st2" width="0.414" height="3.759"/>
		
			<rect x="493.979" y="92.414" transform="matrix(0.9604 0.2785 -0.2785 0.9604 45.8115 -133.8984)" class="st2" width="0.414" height="3.759"/>
		
			<rect x="494.841" y="92.663" transform="matrix(0.9604 0.2785 -0.2785 0.9604 45.9152 -134.1285)" class="st2" width="0.415" height="3.759"/>
		
			<rect x="495.56" y="92.893" transform="matrix(0.9604 0.2785 -0.2785 0.9604 46.1519 -134.2991)" class="st2" width="0.415" height="4.795"/>
		
			<rect x="496.566" y="93.164" transform="matrix(0.9604 0.2785 -0.2785 0.9604 46.1227 -134.589)" class="st2" width="0.415" height="3.759"/>
		
			<rect x="497.429" y="93.414" transform="matrix(0.9604 0.2785 -0.2785 0.9604 46.2266 -134.8195)" class="st2" width="0.413" height="3.759"/>
		
			<rect x="498.291" y="93.664" transform="matrix(0.9604 0.2785 -0.2785 0.9604 46.3303 -135.0496)" class="st2" width="0.414" height="3.759"/>
		
			<rect x="499.153" y="93.914" transform="matrix(0.9604 0.2785 -0.2785 0.9604 46.434 -135.2799)" class="st2" width="0.414" height="3.759"/>
		
			<rect x="499.477" y="94.087" transform="matrix(0.9604 0.2785 -0.2785 0.9604 47.0336 -135.2868)" class="st2" width="0.415" height="7.626"/>
	</g>
	<g>
		
			<rect x="501.008" y="94.452" transform="matrix(0.9604 0.2785 -0.2785 0.9604 46.6573 -135.7754)" class="st2" width="0.415" height="3.759"/>
		
			<rect x="501.87" y="94.702" transform="matrix(0.9604 0.2785 -0.2785 0.9604 46.7609 -136.0054)" class="st2" width="0.415" height="3.759"/>
		
			<rect x="502.733" y="94.952" transform="matrix(0.9604 0.2785 -0.2785 0.9604 46.8647 -136.2358)" class="st2" width="0.414" height="3.759"/>
		
			<rect x="503.594" y="95.202" transform="matrix(0.9604 0.2785 -0.2785 0.9604 46.9684 -136.4659)" class="st2" width="0.415" height="3.759"/>
		
			<rect x="504.313" y="95.431" transform="matrix(0.9604 0.2785 -0.2785 0.9604 47.2051 -136.6364)" class="st2" width="0.414" height="4.795"/>
		
			<rect x="505.32" y="95.702" transform="matrix(0.9604 0.2785 -0.2785 0.9604 47.176 -136.9266)" class="st2" width="0.415" height="3.759"/>
		
			<rect x="506.182" y="95.952" transform="matrix(0.9604 0.2785 -0.2785 0.9604 47.2797 -137.1568)" class="st2" width="0.414" height="3.759"/>
		
			<rect x="507.044" y="96.202" transform="matrix(0.9604 0.2785 -0.2785 0.9604 47.3835 -137.3871)" class="st2" width="0.415" height="3.759"/>
		
			<rect x="507.906" y="96.452" transform="matrix(0.9604 0.2785 -0.2785 0.9604 47.4872 -137.6172)" class="st2" width="0.415" height="3.759"/>
		
			<rect x="508.231" y="96.626" transform="matrix(0.9604 0.2785 -0.2785 0.9604 48.0868 -137.6243)" class="st2" width="0.414" height="7.626"/>
	</g>
</g>
<g>
	<rect x="217" y="282" class="st3" width="91" height="40"/>
	<path class="st4" d="M407.401,257.343V76.762c0-4.667-3.783-8.45-8.45-8.45H127.609c-4.667,0-8.45,3.783-8.45,8.45v180.581H407.401
		z"/>
	<rect x="130.896" y="88.342" class="st5" width="264.769" height="154.604"/>
	<path class="st5" d="M119.159,257.029v25.35c0,4.667,3.783,8.45,8.45,8.45H398.95c4.667,0,8.45-3.783,8.45-8.45v-25.35H119.159z"/>
	<circle class="st6" cx="262.887" cy="78.013" r="3.051"/>
	<path class="st5" d="M328.796,322.386c-0.424-6.406-5.739-11.472-12.25-11.472H210.014c-6.512,0-11.827,5.066-12.25,11.472H328.796
		z"/>
</g>
<g>
	<path class="st7" d="M88.907,33.457c3.275,0,5.93,2.531,5.93,5.652v100.366c0,3.121-2.655,5.652-5.93,5.652H40.868
		c-3.275,0-5.932-2.531-5.932-5.652V39.108c0-3.121,2.657-5.652,5.932-5.652H88.907z"/>
	
		<radialGradient id="SVGID_1_" cx="689.719" cy="-431.6137" r="57.529" gradientTransform="matrix(0 -0.953 1 0 496.5011 746.5934)" gradientUnits="userSpaceOnUse">
		<stop  offset="0" style="stop-color:#F2F2F2"/>
		<stop  offset="1" style="stop-color:#FFFFFF;stop-opacity:0"/>
	</radialGradient>
	<path class="st8" d="M87.197,36.386c3.105,0,5.62,2.398,5.62,5.355v95.098c0,2.96-2.515,5.356-5.62,5.356H42.579
		c-3.105,0-5.62-2.396-5.62-5.356V41.742c0-2.957,2.515-5.355,5.62-5.355H87.197z"/>
</g>
<rect x="39.971" y="44.069" class="st9" width="49.833" height="83.057"/>
<circle class="st10" cx="64.919" cy="136.401" r="5.389"/>
<g>
	<path class="st11" d="M421.539,220.506l0.178,0.006l51.076,1.722c0,0,11.173-0.723,16.217,1.754
		c5.045,2.481,13.978,8.886,18.152,11.308c4.176,2.423,5.453,3.578,4.068,6.012c0,0-1.788,2.552-4.34,1.111
		c-2.551-1.443-17.41-16.056-20.599-17.091c-3.073-0.998-60.011,1.256-64.1,1.42c-0.152,0.006-0.232,0.008-0.232,0.008
		L421.539,220.506z"/>
	<path class="st11" d="M505.614,220.301l-0.177,0.008l-51.067,1.97c0,0-11.177-0.669-16.21,1.834
		c-5.03,2.504-13.932,8.952-18.095,11.394c-4.165,2.444-5.436,3.604-4.04,6.032c0,0,1.801,2.543,4.346,1.09
		c2.542-1.453,17.332-16.141,20.516-17.191c3.066-1.012,60.017,0.967,64.105,1.111c0.152,0.006,0.234,0.008,0.234,0.008
		L505.614,220.301z"/>
	<path class="st12" d="M493.975,217.376c-7.823-1.602-17.259-1.347-21.83,0.111c-3.654,1.166-7.304,1.408-8.625,1.456
		c-1.324-0.041-4.975-0.266-8.632-1.414c-4.58-1.437-14.018-1.646-21.832-0.005c-7.813,1.641-11.807,2.346-11.807,2.346l0.018,6.948
		c0,0,1.742,2.253,3.548,6.651c1.806,4.395,2.628,9.083,12.88,9.986c10.251,0.901,20.382-0.455,22.078-16.73
		c0,0,0.603-2.417,3.595-2.561c0.054-0.001,0.112-0.005,0.165-0.004c0.053-0.002,0.11,0.001,0.166,0.002
		c2.991,0.13,3.603,2.545,3.603,2.545c1.777,16.268,11.914,17.574,22.162,16.623c10.247-0.953,11.047-5.644,12.831-10.049
		c1.784-4.407,3.516-6.668,3.516-6.668l-0.018-6.947C505.793,219.666,501.796,218.98,493.975,217.376z M442.842,241.647
		c-6.369,0.364-11.758-1.535-13.559-3.731c-1.801-2.196-2.573-10.301-1.136-14.647c1.437-4.347,10.818-4.717,18.289-4.331
		c7.471,0.387,9.336,5.017,9.336,5.017C459.222,237.959,449.212,241.285,442.842,241.647z M497.847,237.752
		c-1.791,2.203-7.172,4.127-13.542,3.795c-6.371-0.332-16.398-3.607-13.014-17.629c0,0,1.842-4.639,9.311-5.062
		c7.469-0.424,16.851-0.099,18.309,4.242C500.369,227.438,499.636,235.545,497.847,237.752z"/>
</g>
<g>
	<path class="st5" d="M489.647,290.479c-0.791-18.115-16.117-32.162-34.234-31.372c-18.116,0.791-32.159,16.121-31.369,34.235
		c0.789,18.119,16.115,32.165,34.233,31.374C476.396,323.923,490.439,308.597,489.647,290.479z"/>
	<path class="st13" d="M482.037,290.81c-0.607-13.912-12.377-24.7-26.291-24.093c-13.915,0.607-24.702,12.382-24.095,26.292
		c0.607,13.916,12.38,24.703,26.294,24.098C471.859,316.499,482.644,304.727,482.037,290.81z"/>
	<g>
		<g>
			<g>
				<path class="st14" d="M462.289,271.09c4.172-0.181,8.141,0.68,11.687,2.323c-4.768-4.413-11.225-7.001-18.23-6.696
					c-13.915,0.607-24.702,12.382-24.095,26.292c0.426,9.742,6.332,17.937,14.608,21.773c-4.704-4.354-7.762-10.486-8.063-17.398
					C437.589,283.471,448.378,271.698,462.289,271.09z"/>
			</g>
		</g>
	</g>
	<path class="st5" d="M497.675,283.891c1.961-0.088,3.671,2.684,3.824,6.185l0,0c0.152,3.504-1.31,6.412-3.271,6.498l-10.24,0.447
		c-1.958,0.087-3.669-2.685-3.821-6.188l0,0c-0.154-3.502,1.312-6.412,3.27-6.497L497.675,283.891z"/>
</g>
<path class="st15" d="M143.057,324.108H92.224H72.409H51.481v68.082h20.929h19.815h50.833c6.395,0,11.578-5.183,11.578-11.578
	v-44.926C154.635,329.291,149.452,324.108,143.057,324.108z"/>
<rect x="73.508" y="330.973" class="st16" width="69.942" height="53.874"/>
<rect x="51.481" y="336.426" class="st17" width="13.658" height="43.938"/>
<g>
	<path class="st15" d="M180.385,324.782L180.385,324.782l-1.109-0.82l-0.894-0.663l-31.598-23.418
		c-1.128-0.836-2.721-0.6-3.557,0.529c-0.836,1.128-0.6,2.721,0.529,3.557l31.598,23.418l0.894,0.663l1.108,0.821l5.053,0.58
		L180.385,324.782z"/>
	
		<rect x="153.115" y="309.017" transform="matrix(0.8034 0.5954 -0.5954 0.8034 216.7634 -33.0912)" class="st18" width="10.76" height="5.416"/>
</g>
<g>
	<g>
		<path class="st19" d="M448.086,372.768c5.751,9.094,3.04,21.128-6.056,26.88l0,0c-9.094,5.751-21.127,3.039-26.877-6.055
			l-18.912-29.907c-5.751-9.095-3.042-21.127,6.053-26.878l0,0c9.096-5.752,21.129-3.043,26.88,6.052L448.086,372.768z"/>
		<path class="st20" d="M416.108,354.181c0.762,1.205,0.401,2.804-0.805,3.566l0,0c-1.208,0.764-2.806,0.404-3.568-0.801
			l-5.525-8.738c-0.762-1.205-0.401-2.802,0.807-3.566l0,0c1.205-0.762,2.804-0.404,3.566,0.801L416.108,354.181z"/>
	</g>
	<path class="st21" d="M402.296,336.808c0,0,0,0-0.002,0.001c-9.094,5.751-11.804,17.782-6.053,26.878l18.912,29.907
		c5.751,9.094,17.783,11.806,26.877,6.055c0.002-0.001,0.002-0.001,0.002-0.001L402.296,336.808z"/>
</g>
<g>
	<g>
		<g>
			<path class="st22" d="M377.918,393.015c0,2.258-1.848,4.107-4.109,4.107H171.539c-2.26,0-4.108-1.85-4.108-4.107V342.59
				c0-2.259,1.849-4.108,4.108-4.108h202.269c2.262,0,4.109,1.849,4.109,4.108V393.015z"/>
			<g>
				<g>
					<g>
						<g>
							<g>
								<g>
									<path class="st23" d="M185.696,351.814c0,0.55-0.45,1-1,1h-7.208c-0.55,0-1-0.45-1-1v-7.207c0-0.55,0.45-1,1-1h7.208
										c0.55,0,1,0.45,1,1V351.814z"/>
								</g>
								<g>
									<path class="st23" d="M197.416,351.814c0,0.55-0.45,1-1,1h-7.208c-0.55,0-1-0.45-1-1v-7.207c0-0.55,0.45-1,1-1h7.208
										c0.55,0,1,0.45,1,1V351.814z"/>
								</g>
							</g>
							<g>
								<g>
									<path class="st23" d="M209.136,351.814c0,0.55-0.45,1-1,1h-7.209c-0.55,0-1-0.45-1-1v-7.207c0-0.55,0.45-1,1-1h7.209
										c0.55,0,1,0.45,1,1V351.814z"/>
								</g>
								<g>
									<path class="st23" d="M220.855,351.814c0,0.55-0.45,1-1,1h-7.208c-0.55,0-1-0.45-1-1v-7.207c0-0.55,0.45-1,1-1h7.208
										c0.55,0,1,0.45,1,1V351.814z"/>
								</g>
							</g>
							<g>
								<g>
									<path class="st23" d="M232.575,351.814c0,0.55-0.45,1-1,1h-7.21c-0.55,0-1-0.45-1-1v-7.207c0-0.55,0.45-1,1-1h7.21
										c0.55,0,1,0.45,1,1V351.814z"/>
								</g>
								<g>
									<path class="st23" d="M244.293,351.814c0,0.55-0.45,1-1,1h-7.208c-0.55,0-1-0.45-1-1v-7.207c0-0.55,0.45-1,1-1h7.208
										c0.55,0,1,0.45,1,1V351.814z"/>
								</g>
							</g>
							<g>
								<g>
									<path class="st23" d="M256.015,351.814c0,0.55-0.45,1-1,1h-7.21c-0.55,0-1-0.45-1-1v-7.207c0-0.55,0.45-1,1-1h7.21
										c0.55,0,1,0.45,1,1V351.814z"/>
								</g>
								<g>
									<path class="st23" d="M267.734,351.814c0,0.55-0.45,1-1,1h-7.209c-0.55,0-1-0.45-1-1v-7.207c0-0.55,0.45-1,1-1h7.209
										c0.55,0,1,0.45,1,1V351.814z"/>
								</g>
							</g>
							<g>
								<path class="st23" d="M279.452,351.814c0,0.55-0.45,1-1,1h-7.208c-0.55,0-1-0.45-1-1v-7.207c0-0.55,0.45-1,1-1h7.208
									c0.55,0,1,0.45,1,1V351.814z"/>
							</g>
						</g>
						<g>
							<g>
								<g>
									<path class="st23" d="M185.696,365.209c0,0.55-0.45,1-1,1h-7.208c-0.55,0-1-0.45-1-1V358c0-0.55,0.45-1,1-1h7.208
										c0.55,0,1,0.45,1,1V365.209z"/>
								</g>
								<g>
									<path class="st23" d="M197.416,365.209c0,0.55-0.45,1-1,1h-7.208c-0.55,0-1-0.45-1-1V358c0-0.55,0.45-1,1-1h7.208
										c0.55,0,1,0.45,1,1V365.209z"/>
								</g>
							</g>
							<g>
								<g>
									<path class="st23" d="M209.136,365.209c0,0.55-0.45,1-1,1h-7.209c-0.55,0-1-0.45-1-1V358c0-0.55,0.45-1,1-1h7.209
										c0.55,0,1,0.45,1,1V365.209z"/>
								</g>
								<g>
									<path class="st23" d="M220.855,365.209c0,0.55-0.45,1-1,1h-7.208c-0.55,0-1-0.45-1-1V358c0-0.55,0.45-1,1-1h7.208
										c0.55,0,1,0.45,1,1V365.209z"/>
								</g>
							</g>
							<g>
								<g>
									<path class="st23" d="M232.575,365.209c0,0.55-0.45,1-1,1h-7.21c-0.55,0-1-0.45-1-1V358c0-0.55,0.45-1,1-1h7.21
										c0.55,0,1,0.45,1,1V365.209z"/>
								</g>
								<g>
									<path class="st23" d="M244.293,365.209c0,0.55-0.45,1-1,1h-7.208c-0.55,0-1-0.45-1-1V358c0-0.55,0.45-1,1-1h7.208
										c0.55,0,1,0.45,1,1V365.209z"/>
								</g>
							</g>
							<g>
								<g>
									<path class="st23" d="M256.015,365.209c0,0.55-0.45,1-1,1h-7.21c-0.55,0-1-0.45-1-1V358c0-0.55,0.45-1,1-1h7.21
										c0.55,0,1,0.45,1,1V365.209z"/>
								</g>
								<g>
									<path class="st23" d="M267.734,365.209c0,0.55-0.45,1-1,1h-7.209c-0.55,0-1-0.45-1-1V358c0-0.55,0.45-1,1-1h7.209
										c0.55,0,1,0.45,1,1V365.209z"/>
								</g>
							</g>
							<g>
								<path class="st23" d="M279.452,365.209c0,0.55-0.45,1-1,1h-7.208c-0.55,0-1-0.45-1-1V358c0-0.55,0.45-1,1-1h7.208
									c0.55,0,1,0.45,1,1V365.209z"/>
							</g>
						</g>
						<g>
							<g>
								<g>
									<path class="st23" d="M185.696,378.602c0,0.55-0.45,1-1,1h-7.208c-0.55,0-1-0.45-1-1v-7.209c0-0.55,0.45-1,1-1h7.208
										c0.55,0,1,0.45,1,1V378.602z"/>
								</g>
								<g>
									<path class="st23" d="M197.416,378.602c0,0.55-0.45,1-1,1h-7.208c-0.55,0-1-0.45-1-1v-7.209c0-0.55,0.45-1,1-1h7.208
										c0.55,0,1,0.45,1,1V378.602z"/>
								</g>
							</g>
							<g>
								<g>
									<path class="st23" d="M209.136,378.602c0,0.55-0.45,1-1,1h-7.209c-0.55,0-1-0.45-1-1v-7.209c0-0.55,0.45-1,1-1h7.209
										c0.55,0,1,0.45,1,1V378.602z"/>
								</g>
								<g>
									<path class="st23" d="M220.855,378.602c0,0.55-0.45,1-1,1h-7.208c-0.55,0-1-0.45-1-1v-7.209c0-0.55,0.45-1,1-1h7.208
										c0.55,0,1,0.45,1,1V378.602z"/>
								</g>
							</g>
							<g>
								<g>
									<path class="st23" d="M232.575,378.602c0,0.55-0.45,1-1,1h-7.21c-0.55,0-1-0.45-1-1v-7.209c0-0.55,0.45-1,1-1h7.21
										c0.55,0,1,0.45,1,1V378.602z"/>
								</g>
								<g>
									<path class="st23" d="M244.293,378.602c0,0.55-0.45,1-1,1h-7.208c-0.55,0-1-0.45-1-1v-7.209c0-0.55,0.45-1,1-1h7.208
										c0.55,0,1,0.45,1,1V378.602z"/>
								</g>
							</g>
							<g>
								<g>
									<path class="st23" d="M256.015,378.602c0,0.55-0.45,1-1,1h-7.21c-0.55,0-1-0.45-1-1v-7.209c0-0.55,0.45-1,1-1h7.21
										c0.55,0,1,0.45,1,1V378.602z"/>
								</g>
								<g>
									<path class="st23" d="M267.734,378.602c0,0.55-0.45,1-1,1h-7.209c-0.55,0-1-0.45-1-1v-7.209c0-0.55,0.45-1,1-1h7.209
										c0.55,0,1,0.45,1,1V378.602z"/>
								</g>
							</g>
							<g>
								<path class="st23" d="M279.452,378.602c0,0.55-0.45,1-1,1h-7.208c-0.55,0-1-0.45-1-1v-7.209c0-0.55,0.45-1,1-1h7.208
									c0.55,0,1,0.45,1,1V378.602z"/>
							</g>
						</g>
						<g>
							<g>
								<path class="st23" d="M185.696,391.997c0,0.55-0.45,1-1,1h-7.208c-0.55,0-1-0.45-1-1v-7.21c0-0.55,0.45-1,1-1h7.208
									c0.55,0,1,0.45,1,1V391.997z"/>
							</g>
							<g>
								<path class="st23" d="M197.416,391.997c0,0.55-0.45,1-1,1h-7.208c-0.55,0-1-0.45-1-1v-7.21c0-0.55,0.45-1,1-1h7.208
									c0.55,0,1,0.45,1,1V391.997z"/>
							</g>
						</g>
						<g>
							<path class="st23" d="M245.314,383.787c-0.55,0-1.45,0-2,0h-2.969c-0.55,0-1.45,0-2,0h-2.309c-0.55,0-1.45,0-2,0h-3.298
								c-0.55,0-1.45,0-2,0h-1.975c-0.55,0-1.45,0-2,0h-3.3c-0.55,0-1.45,0-2,0h-3.961c-0.55,0-1.45,0-2,0h-1.313
								c-0.55,0-1.45,0-2,0h-9.265c-0.55,0-1,0.45-1,1v7.21c0,0.55,0.45,1,1,1h9.265c0.55,0,1.45,0,2,0h1.313c0.55,0,1.45,0,2,0
								h3.961c0.55,0,1.45,0,2,0h3.3c0.55,0,1.45,0,2,0h1.975c0.55,0,1.45,0,2,0h3.298c0.55,0,1.45,0,2,0h2.309c0.55,0,1.45,0,2,0
								h2.969c0.55,0,1.45,0,2,0h7.605c0.55,0,1-0.45,1-1v-7.21c0-0.55-0.45-1-1-1H245.314z"/>
						</g>
						<g>
							<path class="st23" d="M267.734,391.997c0,0.55-0.45,1-1,1h-7.209c-0.55,0-1-0.45-1-1v-7.21c0-0.55,0.45-1,1-1h7.209
								c0.55,0,1,0.45,1,1V391.997z"/>
						</g>
						<g>
							<path class="st23" d="M279.452,391.997c0,0.55-0.45,1-1,1h-7.208c-0.55,0-1-0.45-1-1v-7.21c0-0.55,0.45-1,1-1h7.208
								c0.55,0,1,0.45,1,1V391.997z"/>
						</g>
					</g>
					<g>
						<g>
							<g>
								<g>
									<path class="st23" d="M300.38,351.814c0,0.55-0.45,1-1,1h-7.208c-0.55,0-1-0.45-1-1v-7.207c0-0.55,0.45-1,1-1h7.208
										c0.55,0,1,0.45,1,1V351.814z"/>
								</g>
								<g>
									<path class="st23" d="M312.1,351.814c0,0.55-0.45,1-1,1h-7.209c-0.55,0-1-0.45-1-1v-7.207c0-0.55,0.45-1,1-1h7.209
										c0.55,0,1,0.45,1,1V351.814z"/>
								</g>
							</g>
							<g>
								<path class="st23" d="M323.818,351.814c0,0.55-0.45,1-1,1h-7.207c-0.55,0-1-0.45-1-1v-7.207c0-0.55,0.45-1,1-1h7.207
									c0.55,0,1,0.45,1,1V351.814z"/>
							</g>
						</g>
						<g>
							<g>
								<path class="st23" d="M300.38,365.209c0,0.55-0.45,1-1,1h-7.208c-0.55,0-1-0.45-1-1V358c0-0.55,0.45-1,1-1h7.208
									c0.55,0,1,0.45,1,1V365.209z"/>
							</g>
							<g>
								<path class="st23" d="M312.1,365.209c0,0.55-0.45,1-1,1h-7.209c-0.55,0-1-0.45-1-1V358c0-0.55,0.45-1,1-1h7.209
									c0.55,0,1,0.45,1,1V365.209z"/>
							</g>
						</g>
						<g>
							<path class="st23" d="M323.818,365.209c0,0.55-0.45,1-1,1h-7.207c-0.55,0-1-0.45-1-1V358c0-0.55,0.45-1,1-1h7.207
								c0.55,0,1,0.45,1,1V365.209z"/>
						</g>
						<g>
							<g>
								<path class="st23" d="M300.38,391.997c0,0.55-0.45,1-1,1h-7.208c-0.55,0-1-0.45-1-1v-7.21c0-0.55,0.45-1,1-1h7.208
									c0.55,0,1,0.45,1,1V391.997z"/>
							</g>
							<g>
								<path class="st23" d="M312.1,391.997c0,0.55-0.45,1-1,1h-7.209c-0.55,0-1-0.45-1-1v-7.21c0-0.55,0.45-1,1-1h7.209
									c0.55,0,1,0.45,1,1V391.997z"/>
							</g>
						</g>
						<g>
							<path class="st23" d="M323.818,391.997c0,0.55-0.45,1-1,1h-7.207c-0.55,0-1-0.45-1-1v-7.21c0-0.55,0.45-1,1-1h7.207
								c0.55,0,1,0.45,1,1V391.997z"/>
						</g>
						<g>
							<path class="st23" d="M312.1,378.602c0,0.55-0.45,1-1,1h-7.209c-0.55,0-1-0.45-1-1v-7.209c0-0.55,0.45-1,1-1h7.209
								c0.55,0,1,0.45,1,1V378.602z"/>
						</g>
					</g>
					<g>
						<g>
							<g>
								<g>
									<path class="st23" d="M346.42,351.814c0,0.55-0.45,1-1,1h-7.207c-0.55,0-1-0.45-1-1v-7.207c0-0.55,0.45-1,1-1h7.207
										c0.55,0,1,0.45,1,1V351.814z"/>
								</g>
								<g>
									<path class="st23" d="M358.139,351.814c0,0.55-0.45,1-1,1h-7.207c-0.55,0-1-0.45-1-1v-7.207c0-0.55,0.45-1,1-1h7.207
										c0.55,0,1,0.45,1,1V351.814z"/>
								</g>
							</g>
							<g>
								<path class="st23" d="M369.859,351.814c0,0.55-0.45,1-1,1h-7.209c-0.55,0-1-0.45-1-1v-7.207c0-0.55,0.45-1,1-1h7.209
									c0.55,0,1,0.45,1,1V351.814z"/>
							</g>
						</g>
						<g>
							<g>
								<g>
									<path class="st23" d="M346.42,365.209c0,0.55-0.45,1-1,1h-7.207c-0.55,0-1-0.45-1-1V358c0-0.55,0.45-1,1-1h7.207
										c0.55,0,1,0.45,1,1V365.209z"/>
								</g>
								<g>
									<path class="st23" d="M358.139,365.209c0,0.55-0.45,1-1,1h-7.207c-0.55,0-1-0.45-1-1V358c0-0.55,0.45-1,1-1h7.207
										c0.55,0,1,0.45,1,1V365.209z"/>
								</g>
							</g>
							<g>
								<path class="st23" d="M369.859,365.209c0,0.55-0.45,1-1,1h-7.209c-0.55,0-1-0.45-1-1V358c0-0.55,0.45-1,1-1h7.209
									c0.55,0,1,0.45,1,1V365.209z"/>
							</g>
						</g>
						<g>
							<g>
								<g>
									<path class="st23" d="M346.42,378.602c0,0.55-0.45,1-1,1h-7.207c-0.55,0-1-0.45-1-1v-7.209c0-0.55,0.45-1,1-1h7.207
										c0.55,0,1,0.45,1,1V378.602z"/>
								</g>
								<g>
									<path class="st23" d="M358.139,378.602c0,0.55-0.45,1-1,1h-7.207c-0.55,0-1-0.45-1-1v-7.209c0-0.55,0.45-1,1-1h7.207
										c0.55,0,1,0.45,1,1V378.602z"/>
								</g>
							</g>
							<g>
								<path class="st23" d="M369.859,378.602c0,0.55-0.45,1-1,1h-7.209c-0.55,0-1-0.45-1-1v-7.209c0-0.55,0.45-1,1-1h7.209
									c0.55,0,1,0.45,1,1V378.602z"/>
							</g>
						</g>
						<g>
							<g>
								<g>
									<path class="st23" d="M346.42,391.997c0,0.55-0.45,1-1,1h-7.207c-0.55,0-1-0.45-1-1v-7.21c0-0.55,0.45-1,1-1h7.207
										c0.55,0,1,0.45,1,1V391.997z"/>
								</g>
								<g>
									<path class="st23" d="M358.139,391.997c0,0.55-0.45,1-1,1h-7.207c-0.55,0-1-0.45-1-1v-7.21c0-0.55,0.45-1,1-1h7.207
										c0.55,0,1,0.45,1,1V391.997z"/>
								</g>
							</g>
							<g>
								<path class="st23" d="M369.859,391.997c0,0.55-0.45,1-1,1h-7.209c-0.55,0-1-0.45-1-1v-7.21c0-0.55,0.45-1,1-1h7.209
									c0.55,0,1,0.45,1,1V391.997z"/>
							</g>
						</g>
					</g>
				</g>
				<g>
					<g>
						<g>
							<g>
								<g>
									<path class="st5" d="M184.696,350.814c0,0.55-0.45,1-1,1h-7.208c-0.55,0-1-0.45-1-1v-7.207c0-0.55,0.45-1,1-1h7.208
										c0.55,0,1,0.45,1,1V350.814z"/>
								</g>
								<g>
									<path class="st5" d="M196.416,350.814c0,0.55-0.45,1-1,1h-7.208c-0.55,0-1-0.45-1-1v-7.207c0-0.55,0.45-1,1-1h7.208
										c0.55,0,1,0.45,1,1V350.814z"/>
								</g>
							</g>
							<g>
								<g>
									<path class="st5" d="M208.136,350.814c0,0.55-0.45,1-1,1h-7.209c-0.55,0-1-0.45-1-1v-7.207c0-0.55,0.45-1,1-1h7.209
										c0.55,0,1,0.45,1,1V350.814z"/>
								</g>
								<g>
									<path class="st5" d="M219.855,350.814c0,0.55-0.45,1-1,1h-7.208c-0.55,0-1-0.45-1-1v-7.207c0-0.55,0.45-1,1-1h7.208
										c0.55,0,1,0.45,1,1V350.814z"/>
								</g>
							</g>
							<g>
								<g>
									<path class="st5" d="M231.575,350.814c0,0.55-0.45,1-1,1h-7.21c-0.55,0-1-0.45-1-1v-7.207c0-0.55,0.45-1,1-1h7.21
										c0.55,0,1,0.45,1,1V350.814z"/>
								</g>
								<g>
									<path class="st5" d="M243.293,350.814c0,0.55-0.45,1-1,1h-7.208c-0.55,0-1-0.45-1-1v-7.207c0-0.55,0.45-1,1-1h7.208
										c0.55,0,1,0.45,1,1V350.814z"/>
								</g>
							</g>
							<g>
								<g>
									<path class="st5" d="M255.015,350.814c0,0.55-0.45,1-1,1h-7.21c-0.55,0-1-0.45-1-1v-7.207c0-0.55,0.45-1,1-1h7.21
										c0.55,0,1,0.45,1,1V350.814z"/>
								</g>
								<g>
									<path class="st5" d="M266.734,350.814c0,0.55-0.45,1-1,1h-7.209c-0.55,0-1-0.45-1-1v-7.207c0-0.55,0.45-1,1-1h7.209
										c0.55,0,1,0.45,1,1V350.814z"/>
								</g>
							</g>
							<g>
								<path class="st5" d="M278.452,350.814c0,0.55-0.45,1-1,1h-7.208c-0.55,0-1-0.45-1-1v-7.207c0-0.55,0.45-1,1-1h7.208
									c0.55,0,1,0.45,1,1V350.814z"/>
							</g>
						</g>
						<g>
							<g>
								<g>
									<path class="st5" d="M184.696,364.209c0,0.55-0.45,1-1,1h-7.208c-0.55,0-1-0.45-1-1V357c0-0.55,0.45-1,1-1h7.208
										c0.55,0,1,0.45,1,1V364.209z"/>
								</g>
								<g>
									<path class="st5" d="M196.416,364.209c0,0.55-0.45,1-1,1h-7.208c-0.55,0-1-0.45-1-1V357c0-0.55,0.45-1,1-1h7.208
										c0.55,0,1,0.45,1,1V364.209z"/>
								</g>
							</g>
							<g>
								<g>
									<path class="st5" d="M208.136,364.209c0,0.55-0.45,1-1,1h-7.209c-0.55,0-1-0.45-1-1V357c0-0.55,0.45-1,1-1h7.209
										c0.55,0,1,0.45,1,1V364.209z"/>
								</g>
								<g>
									<path class="st5" d="M219.855,364.209c0,0.55-0.45,1-1,1h-7.208c-0.55,0-1-0.45-1-1V357c0-0.55,0.45-1,1-1h7.208
										c0.55,0,1,0.45,1,1V364.209z"/>
								</g>
							</g>
							<g>
								<g>
									<path class="st5" d="M231.575,364.209c0,0.55-0.45,1-1,1h-7.21c-0.55,0-1-0.45-1-1V357c0-0.55,0.45-1,1-1h7.21
										c0.55,0,1,0.45,1,1V364.209z"/>
								</g>
								<g>
									<path class="st5" d="M243.293,364.209c0,0.55-0.45,1-1,1h-7.208c-0.55,0-1-0.45-1-1V357c0-0.55,0.45-1,1-1h7.208
										c0.55,0,1,0.45,1,1V364.209z"/>
								</g>
							</g>
							<g>
								<g>
									<path class="st5" d="M255.015,364.209c0,0.55-0.45,1-1,1h-7.21c-0.55,0-1-0.45-1-1V357c0-0.55,0.45-1,1-1h7.21
										c0.55,0,1,0.45,1,1V364.209z"/>
								</g>
								<g>
									<path class="st5" d="M266.734,364.209c0,0.55-0.45,1-1,1h-7.209c-0.55,0-1-0.45-1-1V357c0-0.55,0.45-1,1-1h7.209
										c0.55,0,1,0.45,1,1V364.209z"/>
								</g>
							</g>
							<g>
								<path class="st5" d="M278.452,364.209c0,0.55-0.45,1-1,1h-7.208c-0.55,0-1-0.45-1-1V357c0-0.55,0.45-1,1-1h7.208
									c0.55,0,1,0.45,1,1V364.209z"/>
							</g>
						</g>
						<g>
							<g>
								<g>
									<path class="st5" d="M184.696,377.602c0,0.55-0.45,1-1,1h-7.208c-0.55,0-1-0.45-1-1v-7.209c0-0.55,0.45-1,1-1h7.208
										c0.55,0,1,0.45,1,1V377.602z"/>
								</g>
								<g>
									<path class="st5" d="M196.416,377.602c0,0.55-0.45,1-1,1h-7.208c-0.55,0-1-0.45-1-1v-7.209c0-0.55,0.45-1,1-1h7.208
										c0.55,0,1,0.45,1,1V377.602z"/>
								</g>
							</g>
							<g>
								<g>
									<path class="st5" d="M208.136,377.602c0,0.55-0.45,1-1,1h-7.209c-0.55,0-1-0.45-1-1v-7.209c0-0.55,0.45-1,1-1h7.209
										c0.55,0,1,0.45,1,1V377.602z"/>
								</g>
								<g>
									<path class="st5" d="M219.855,377.602c0,0.55-0.45,1-1,1h-7.208c-0.55,0-1-0.45-1-1v-7.209c0-0.55,0.45-1,1-1h7.208
										c0.55,0,1,0.45,1,1V377.602z"/>
								</g>
							</g>
							<g>
								<g>
									<path class="st5" d="M231.575,377.602c0,0.55-0.45,1-1,1h-7.21c-0.55,0-1-0.45-1-1v-7.209c0-0.55,0.45-1,1-1h7.21
										c0.55,0,1,0.45,1,1V377.602z"/>
								</g>
								<g>
									<path class="st5" d="M243.293,377.602c0,0.55-0.45,1-1,1h-7.208c-0.55,0-1-0.45-1-1v-7.209c0-0.55,0.45-1,1-1h7.208
										c0.55,0,1,0.45,1,1V377.602z"/>
								</g>
							</g>
							<g>
								<g>
									<path class="st5" d="M255.015,377.602c0,0.55-0.45,1-1,1h-7.21c-0.55,0-1-0.45-1-1v-7.209c0-0.55,0.45-1,1-1h7.21
										c0.55,0,1,0.45,1,1V377.602z"/>
								</g>
								<g>
									<path class="st5" d="M266.734,377.602c0,0.55-0.45,1-1,1h-7.209c-0.55,0-1-0.45-1-1v-7.209c0-0.55,0.45-1,1-1h7.209
										c0.55,0,1,0.45,1,1V377.602z"/>
								</g>
							</g>
							<g>
								<path class="st5" d="M278.452,377.602c0,0.55-0.45,1-1,1h-7.208c-0.55,0-1-0.45-1-1v-7.209c0-0.55,0.45-1,1-1h7.208
									c0.55,0,1,0.45,1,1V377.602z"/>
							</g>
						</g>
						<g>
							<g>
								<path class="st5" d="M184.696,390.997c0,0.55-0.45,1-1,1h-7.208c-0.55,0-1-0.45-1-1v-7.21c0-0.55,0.45-1,1-1h7.208
									c0.55,0,1,0.45,1,1V390.997z"/>
							</g>
							<g>
								<path class="st5" d="M196.416,390.997c0,0.55-0.45,1-1,1h-7.208c-0.55,0-1-0.45-1-1v-7.21c0-0.55,0.45-1,1-1h7.208
									c0.55,0,1,0.45,1,1V390.997z"/>
							</g>
						</g>
						<g>
							<path class="st5" d="M244.314,382.787c-0.55,0-1.45,0-2,0h-2.969c-0.55,0-1.45,0-2,0h-2.309c-0.55,0-1.45,0-2,0h-3.298
								c-0.55,0-1.45,0-2,0h-1.975c-0.55,0-1.45,0-2,0h-3.3c-0.55,0-1.45,0-2,0h-3.961c-0.55,0-1.45,0-2,0h-1.313
								c-0.55,0-1.45,0-2,0h-9.265c-0.55,0-1,0.45-1,1v7.21c0,0.55,0.45,1,1,1h9.265c0.55,0,1.45,0,2,0h1.313c0.55,0,1.45,0,2,0
								h3.961c0.55,0,1.45,0,2,0h3.3c0.55,0,1.45,0,2,0h1.975c0.55,0,1.45,0,2,0h3.298c0.55,0,1.45,0,2,0h2.309c0.55,0,1.45,0,2,0
								h2.969c0.55,0,1.45,0,2,0h7.605c0.55,0,1-0.45,1-1v-7.21c0-0.55-0.45-1-1-1H244.314z"/>
						</g>
						<g>
							<path class="st5" d="M266.734,390.997c0,0.55-0.45,1-1,1h-7.209c-0.55,0-1-0.45-1-1v-7.21c0-0.55,0.45-1,1-1h7.209
								c0.55,0,1,0.45,1,1V390.997z"/>
						</g>
						<g>
							<path class="st5" d="M278.452,390.997c0,0.55-0.45,1-1,1h-7.208c-0.55,0-1-0.45-1-1v-7.21c0-0.55,0.45-1,1-1h7.208
								c0.55,0,1,0.45,1,1V390.997z"/>
						</g>
					</g>
					<g>
						<g>
							<g>
								<g>
									<path class="st5" d="M299.38,350.814c0,0.55-0.45,1-1,1h-7.208c-0.55,0-1-0.45-1-1v-7.207c0-0.55,0.45-1,1-1h7.208
										c0.55,0,1,0.45,1,1V350.814z"/>
								</g>
								<g>
									<path class="st5" d="M311.1,350.814c0,0.55-0.45,1-1,1h-7.209c-0.55,0-1-0.45-1-1v-7.207c0-0.55,0.45-1,1-1h7.209
										c0.55,0,1,0.45,1,1V350.814z"/>
								</g>
							</g>
							<g>
								<path class="st5" d="M322.818,350.814c0,0.55-0.45,1-1,1h-7.207c-0.55,0-1-0.45-1-1v-7.207c0-0.55,0.45-1,1-1h7.207
									c0.55,0,1,0.45,1,1V350.814z"/>
							</g>
						</g>
						<g>
							<g>
								<path class="st5" d="M299.38,364.209c0,0.55-0.45,1-1,1h-7.208c-0.55,0-1-0.45-1-1V357c0-0.55,0.45-1,1-1h7.208
									c0.55,0,1,0.45,1,1V364.209z"/>
							</g>
							<g>
								<path class="st5" d="M311.1,364.209c0,0.55-0.45,1-1,1h-7.209c-0.55,0-1-0.45-1-1V357c0-0.55,0.45-1,1-1h7.209
									c0.55,0,1,0.45,1,1V364.209z"/>
							</g>
						</g>
						<g>
							<path class="st5" d="M322.818,364.209c0,0.55-0.45,1-1,1h-7.207c-0.55,0-1-0.45-1-1V357c0-0.55,0.45-1,1-1h7.207
								c0.55,0,1,0.45,1,1V364.209z"/>
						</g>
						<g>
							<g>
								<path class="st5" d="M299.38,390.997c0,0.55-0.45,1-1,1h-7.208c-0.55,0-1-0.45-1-1v-7.21c0-0.55,0.45-1,1-1h7.208
									c0.55,0,1,0.45,1,1V390.997z"/>
							</g>
							<g>
								<path class="st5" d="M311.1,390.997c0,0.55-0.45,1-1,1h-7.209c-0.55,0-1-0.45-1-1v-7.21c0-0.55,0.45-1,1-1h7.209
									c0.55,0,1,0.45,1,1V390.997z"/>
							</g>
						</g>
						<g>
							<path class="st5" d="M322.818,390.997c0,0.55-0.45,1-1,1h-7.207c-0.55,0-1-0.45-1-1v-7.21c0-0.55,0.45-1,1-1h7.207
								c0.55,0,1,0.45,1,1V390.997z"/>
						</g>
						<g>
							<path class="st5" d="M311.1,377.602c0,0.55-0.45,1-1,1h-7.209c-0.55,0-1-0.45-1-1v-7.209c0-0.55,0.45-1,1-1h7.209
								c0.55,0,1,0.45,1,1V377.602z"/>
						</g>
					</g>
					<g>
						<g>
							<g>
								<g>
									<path class="st5" d="M345.42,350.814c0,0.55-0.45,1-1,1h-7.207c-0.55,0-1-0.45-1-1v-7.207c0-0.55,0.45-1,1-1h7.207
										c0.55,0,1,0.45,1,1V350.814z"/>
								</g>
								<g>
									<path class="st5" d="M357.139,350.814c0,0.55-0.45,1-1,1h-7.207c-0.55,0-1-0.45-1-1v-7.207c0-0.55,0.45-1,1-1h7.207
										c0.55,0,1,0.45,1,1V350.814z"/>
								</g>
							</g>
							<g>
								<path class="st5" d="M368.859,350.814c0,0.55-0.45,1-1,1h-7.209c-0.55,0-1-0.45-1-1v-7.207c0-0.55,0.45-1,1-1h7.209
									c0.55,0,1,0.45,1,1V350.814z"/>
							</g>
						</g>
						<g>
							<g>
								<g>
									<path class="st5" d="M345.42,364.209c0,0.55-0.45,1-1,1h-7.207c-0.55,0-1-0.45-1-1V357c0-0.55,0.45-1,1-1h7.207
										c0.55,0,1,0.45,1,1V364.209z"/>
								</g>
								<g>
									<path class="st5" d="M357.139,364.209c0,0.55-0.45,1-1,1h-7.207c-0.55,0-1-0.45-1-1V357c0-0.55,0.45-1,1-1h7.207
										c0.55,0,1,0.45,1,1V364.209z"/>
								</g>
							</g>
							<g>
								<path class="st5" d="M368.859,364.209c0,0.55-0.45,1-1,1h-7.209c-0.55,0-1-0.45-1-1V357c0-0.55,0.45-1,1-1h7.209
									c0.55,0,1,0.45,1,1V364.209z"/>
							</g>
						</g>
						<g>
							<g>
								<g>
									<path class="st5" d="M345.42,377.602c0,0.55-0.45,1-1,1h-7.207c-0.55,0-1-0.45-1-1v-7.209c0-0.55,0.45-1,1-1h7.207
										c0.55,0,1,0.45,1,1V377.602z"/>
								</g>
								<g>
									<path class="st5" d="M357.139,377.602c0,0.55-0.45,1-1,1h-7.207c-0.55,0-1-0.45-1-1v-7.209c0-0.55,0.45-1,1-1h7.207
										c0.55,0,1,0.45,1,1V377.602z"/>
								</g>
							</g>
							<g>
								<path class="st5" d="M368.859,377.602c0,0.55-0.45,1-1,1h-7.209c-0.55,0-1-0.45-1-1v-7.209c0-0.55,0.45-1,1-1h7.209
									c0.55,0,1,0.45,1,1V377.602z"/>
							</g>
						</g>
						<g>
							<g>
								<g>
									<path class="st5" d="M345.42,390.997c0,0.55-0.45,1-1,1h-7.207c-0.55,0-1-0.45-1-1v-7.21c0-0.55,0.45-1,1-1h7.207
										c0.55,0,1,0.45,1,1V390.997z"/>
								</g>
								<g>
									<path class="st5" d="M357.139,390.997c0,0.55-0.45,1-1,1h-7.207c-0.55,0-1-0.45-1-1v-7.21c0-0.55,0.45-1,1-1h7.207
										c0.55,0,1,0.45,1,1V390.997z"/>
								</g>
							</g>
							<g>
								<path class="st5" d="M368.859,390.997c0,0.55-0.45,1-1,1h-7.209c-0.55,0-1-0.45-1-1v-7.21c0-0.55,0.45-1,1-1h7.209
									c0.55,0,1,0.45,1,1V390.997z"/>
							</g>
						</g>
					</g>
				</g>
			</g>
		</g>
	</g>
	<g class="st24">
		<path class="st5" d="M272.674,339.482c0-0.55-0.45-1-1-1h-99.135c-0.55,0-1.41,0.185-1.912,0.41l-2.786,2.786
			c-0.226,0.502-0.41,1.362-0.41,1.912v48.425c0,0.55,0.185,1.41,0.41,1.912l2.786,2.785c0.502,0.226,1.362,0.411,1.912,0.411
			h99.135c0.55,0,1-0.45,1-1V339.482z"/>
	</g>
</g>
<g>
	<g>
		<rect x="36.697" y="216.498" class="st5" width="27.559" height="93.907"/>
		<rect x="36.697" y="277.062" class="st25" width="27.559" height="16.331"/>
		<rect x="36.697" y="256.647" class="st26" width="27.559" height="16.331"/>
		<rect x="36.697" y="236.232" class="st27" width="27.559" height="16.332"/>
		<rect x="36.697" y="215.818" class="st28" width="27.559" height="16.332"/>
	</g>
	<g>
		
			<rect x="47.856" y="215.878" transform="matrix(0.9637 0.2671 -0.2671 0.9637 72.435 -6.9141)" class="st5" width="27.559" height="93.907"/>
		
			<rect x="42.04" y="275.649" transform="matrix(0.9637 0.2671 -0.2671 0.9637 77.828 -4.5985)" class="st29" width="27.559" height="16.333"/>
		
			<rect x="47.492" y="255.977" transform="matrix(0.9637 0.2671 -0.2671 0.9637 72.7797 -6.769)" class="st30" width="27.559" height="16.332"/>
		
			<rect x="52.945" y="236.304" transform="matrix(0.9637 0.2671 -0.2671 0.9637 67.7211 -8.9403)" class="st31" width="27.559" height="16.332"/>
		
			<rect x="58.398" y="216.632" transform="matrix(0.9637 0.2671 -0.2671 0.9637 62.6601 -11.1111)" class="st32" width="27.559" height="16.332"/>
	</g>
	<g>
		
			<rect x="58.775" y="218.26" transform="matrix(0.8573 0.5148 -0.5148 0.8573 146.8759 0.4896)" class="st5" width="27.559" height="93.907"/>
		
			<rect x="47.565" y="275.715" transform="matrix(0.8573 0.5148 -0.5148 0.8573 154.8831 8.9223)" class="st33" width="27.56" height="16.333"/>
		
			<rect x="58.074" y="258.215" transform="matrix(0.8573 0.5148 -0.5148 0.8573 147.3869 1.0202)" class="st34" width="27.559" height="16.331"/>
		
			<rect x="68.583" y="240.713" transform="matrix(0.8573 0.5148 -0.5148 0.8573 139.8682 -6.8896)" class="st35" width="27.56" height="16.332"/>
		
			<rect x="79.092" y="223.211" transform="matrix(0.8573 0.5148 -0.5148 0.8573 132.3606 -14.7958)" class="st36" width="27.56" height="16.332"/>
	</g>
	<g>
		
			<rect x="68.661" y="223.472" transform="matrix(0.6887 0.7251 -0.7251 0.6887 221.7427 24.4155)" class="st5" width="27.558" height="93.907"/>
		
			<rect x="52.872" y="277.256" transform="matrix(0.6887 0.725 -0.725 0.6887 227.6889 40.5235)" class="st37" width="27.56" height="16.333"/>
		
			<rect x="67.673" y="263.198" transform="matrix(0.6887 0.7251 -0.7251 0.6887 222.1197 25.4253)" class="st38" width="27.559" height="16.331"/>
		
			<rect x="82.475" y="249.138" transform="matrix(0.6887 0.7251 -0.7251 0.6887 216.5245 10.3107)" class="st39" width="27.56" height="16.333"/>
		
			<rect x="97.277" y="235.079" transform="matrix(0.6887 0.725 -0.725 0.6887 210.9357 -4.7995)" class="st40" width="27.561" height="16.333"/>
	</g>
	<g>
		
			<rect x="76.795" y="231.136" transform="matrix(0.47 0.8827 -0.8827 0.47 293.4603 67.4361)" class="st5" width="27.559" height="93.907"/>
		
			<rect x="57.574" y="280.157" transform="matrix(0.47 0.8826 -0.8826 0.47 292.3041 89.8216)" class="st41" width="27.56" height="16.333"/>
		
			<rect x="75.593" y="270.563" transform="matrix(0.47 0.8827 -0.8827 0.47 293.4 68.8475)" class="st42" width="27.559" height="16.331"/>
		
			<rect x="93.613" y="260.967" transform="matrix(0.47 0.8826 -0.8826 0.47 294.4635 47.8406)" class="st43" width="27.559" height="16.333"/>
		
			<rect x="111.631" y="251.373" transform="matrix(0.47 0.8827 -0.8827 0.47 295.5482 26.8541)" class="st44" width="27.561" height="16.333"/>
	</g>
	<g>
		
			<rect x="82.587" y="240.693" transform="matrix(0.2171 0.9761 -0.9761 0.2171 356.224 131.1179)" class="st5" width="27.559" height="93.907"/>
		
			<rect x="61.331" y="284.209" transform="matrix(0.2172 0.9761 -0.9761 0.2172 344.1901 155.5486)" class="st45" width="27.56" height="16.333"/>
		
			<rect x="81.257" y="279.778" transform="matrix(0.2171 0.9761 -0.9761 0.2171 355.4764 132.6539)" class="st46" width="27.56" height="16.33"/>
		
			<rect x="101.186" y="275.343" transform="matrix(0.2172 0.9761 -0.9761 0.2172 366.738 109.7115)" class="st47" width="27.56" height="16.333"/>
		
			<rect x="121.113" y="270.909" transform="matrix(0.2172 0.9761 -0.9761 0.2172 378.0035 86.7825)" class="st48" width="27.56" height="16.333"/>
	</g>
	<path class="st1" d="M57.226,303.501c-3.181,11.256-10.207,21.216-20.593,26.853c-3.613,1.961-13.273,4.925-11.833-2.684
		c0.627-3.32,3.155-6.503,5.19-9.083c1.997-2.531,4.235-5.236,6.593-7.442c0.889-0.832-0.447-2.161-1.333-1.333
		c-2.688,2.516-5.245,5.603-7.462,8.55c-2.105,2.799-4.685,6.253-4.995,9.889c-0.405,4.76,3.557,6.933,7.916,6.23
		c6.779-1.093,12.954-5.908,17.543-10.772c5.191-5.503,8.747-12.468,10.793-19.708C59.374,302.83,57.555,302.334,57.226,303.501
		L57.226,303.501z"/>
</g>
</svg>
