<?xml version="1.0" encoding="utf-8"?>
<!-- Generator: Adobe Illustrator 17.0.0, SVG Export Plug-In . SVG Version: 6.00 Build 0)  -->
<!DOCTYPE svg PUBLIC "-//W3C//DTD SVG 1.1//EN" "http://www.w3.org/Graphics/SVG/1.1/DTD/svg11.dtd">
<svg version="1.1" id="Layer_1" xmlns="http://www.w3.org/2000/svg" xmlns:xlink="http://www.w3.org/1999/xlink" x="0px" y="0px"
	 width="841.89px" height="595.28px" viewBox="0 0 841.89 595.28" style="enable-background:new 0 0 841.89 595.28;"
	 xml:space="preserve">
<style type="text/css">
	.st0{fill:none;stroke:#65c6bd;stroke-width:5;stroke-miterlimit:10;}
	.st1{fill:#FFFFFF;}
	.st2{font-family:'MyriadPro-Regular';}
	.st3{font-size:19.4175;}
	.st4{fill:none;stroke:#65c6bd;stroke-width:5;stroke-miterlimit:10;}
	.st5{fill:none;stroke:#65c6bd;stroke-width:5;stroke-miterlimit:10;}
	.st6{fill:none;stroke:#65c6bd;stroke-width:5;stroke-miterlimit:10;}
	.st7{fill:none;stroke:#65c6bd;stroke-width:5;stroke-miterlimit:10;}
	.st8{fill:none;stroke:#65c6bd;stroke-width:5;stroke-miterlimit:10;}
	<defs>
  <style type="text/css">
   <![CDATA[
    @font-face {
        font-family: cool;
        src: url(../fonts/coolvetica-rg.ttf);
    }
   ]]>
   <style>
		.st0, .st4, .st5, .st6, .st7, .st8
		{stroke-dasharray:2000;
		stroke-dashoffset:0;
		animation: dash 5s linear forwards infinite;
		-webkit-animation: dash 5s linear forwards infinite;
		-moz-animation: dash 5s linear forwards infinite;
		-o-animation: dash 5s linear forwards infinite;
		-ms-animation: dash 5s linear forwards infinite;}

		@-webkit-keyframes dash

		{
		from{stroke-dashoffset:2000;}
		to{stroke-dasofset:0;}
		}
		@-moz-keyframes dash

		{
		from{stroke-dashoffset:2000;}
		to{stroke-dasofset:0;}
		}
		@keyframes dash

		{
		from{stroke-dashoffset:2000;}
		to{stroke-dasofset:0;}
		}
	</style>
 </style>
</defs>
</style>
<polygon class="st0" points="631.927,417.203 573.606,316.188 631.927,215.173 748.569,215.173 806.89,316.188 748.569,417.203 "/>
<text transform="matrix(1 0 0 1 651.8013 321.8871)" class="st1 st2 st3" style="font-family: 'cool'; font-weight:normal; font-style: normal; font-size:22px;"><a href="#as">Ms-Office</a></text>
<polygon class="st4" points="93.728,314.952 35.407,213.937 93.728,112.922 210.37,112.922 268.691,213.937 210.37,314.952 "/>
<text transform="matrix(1 0 0 1 127.7661 192.7743)" class="st1 st2 st3" style="font-family: 'cool'; font-weight:normal; font-style: normal; font-size:22px;">Adobe </text>
<text transform="matrix(1 0 0 1 102.6987 216.0751)" class="st1 st2 st3" style="font-family: 'cool'; font-weight:normal; font-style: normal; font-size:22px;">Illustrator CC </text>
<text transform="matrix(1 0 0 1 149.1147 239.3759)" class="st1 st2 st3" style="font-family: 'cool'; font-weight:normal; font-style: normal; font-size:22px;">+ </text>
<text transform="matrix(1 0 0 1 114.6587 262.6781)" class="st1 st2 st3" style="font-family: 'cool'; font-weight:normal; font-style: normal; font-size:22px;">Sketching</text>
<polygon class="st5" points="273.32,419.203 214.998,318.188 273.32,217.173 389.961,217.173 448.284,318.188 389.961,419.203 "/>
<text transform="matrix(1 0 0 1 302.8852 293.7894)" class="st1 st2 st3" style="font-family: 'cool'; font-weight:normal; font-style: normal; font-size:22px;">Adobe </text>
<text transform="matrix(1 0 0 1 272.188 317.0902)" class="st1 st2 st3" style="font-family: 'cool'; font-weight:normal; font-style: normal; font-size:22px;">Photoshop CC </text>
<text transform="matrix(1 0 0 1 324.2358 340.3919)" class="st1 st2 st3" style="font-family: 'cool'; font-weight:normal; font-style: normal; font-size:22px;">+ </text>
<text transform="matrix(1 0 0 1 276.8266 363.6918)" class="st1 st2 st3" style="font-family: 'cool'; font-weight:normal; font-style: normal; font-size:22px;">Photography</text>
<polygon class="st6" points="451.908,314.243 393.588,213.228 451.908,112.213 568.549,112.213 626.872,213.228 568.549,314.243 "/>
<text transform="matrix(1 0 0 1 465.4135 195.6253)" class="st1 st2 st3" style="font-family: 'cool'; font-weight:normal; font-style: normal; font-size:22px;">Corel Draw </text>
<text transform="matrix(1 0 0 1 504.4419 218.9266)" class="st1 st2 st3" style="font-family: 'cool'; font-weight:normal; font-style: normal; font-size:22px;">+ </text>
<text transform="matrix(1 0 0 1 469.9858 242.2274)" class="st1 st2 st3" style="font-family: 'cool'; font-weight:normal; font-style: normal; font-size:22px;">Sketching</text>
<polygon class="st7" points="453.908,520.599 395.586,419.585 453.908,318.57 570.549,318.57 628.872,419.585 570.549,520.599 "/>
<text transform="matrix(1 0 0 1 472.228 401.9828)" class="st1 st2 st3" style="font-family: 'cool'; font-weight:normal; font-style: normal; font-size:22px;">Javascript </text>
<text transform="matrix(1 0 0 1 506.4419 425.2836)" class="st1 st2 st3" style="font-family: 'cool'; font-weight:normal; font-style: normal; font-size:22px;">+ </text>
<text transform="matrix(1 0 0 1 485.2182 448.5844)" class="st1 st2 st3" style="font-family: 'cool'; font-weight:normal; font-style: normal; font-size:22px;">jQuery</text>
<polygon class="st8" points="93.728,521.599 35.407,420.585 93.728,319.57 210.37,319.57 268.691,420.585 210.37,521.599 "/>
<text transform="matrix(1 0 0 1 121.4653 402.9828)" class="st1 st2 st3" style="font-family: 'cool'; font-weight:normal; font-style: normal; font-size:22px;">HTML 5 </text>
<text transform="matrix(1 0 0 1 146.2602 426.2836)" class="st1 st2 st3" style="font-family: 'cool'; font-weight:normal; font-style: normal; font-size:22px;">+ </text>
<text transform="matrix(1 0 0 1 129.8051 449.5843)" class="st1 st2 st3" style="font-family: 'cool'; font-weight:normal; font-style: normal; font-size:22px;">CSS 3</text>
</svg>
