<?xml version="1.0" encoding="utf-8"?>
<!-- Generator: Adobe Illustrator 17.0.0, SVG Export Plug-In . SVG Version: 6.00 Build 0)  -->
<!DOCTYPE svg PUBLIC "-//W3C//DTD SVG 1.1//EN" "http://www.w3.org/Graphics/SVG/1.1/DTD/svg11.dtd">
<svg version="1.1" id="Layer_1" xmlns="http://www.w3.org/2000/svg" xmlns:xlink="http://www.w3.org/1999/xlink" x="0px" y="0px"
	 width="574px" height="413.255px" viewBox="0 0 574 413.255" style="enable-background:new 0 0 574 413.255;" xml:space="preserve"
	>
<style type="text/css">
	.st0{fill:#FABFAE;}
	.st1{fill:#FFCA20;}
	.st2{fill:#FFE7AB;}
	.st3{fill:#FFFFFF;}
	.st4{fill:#2A2A2F;}
	.st5{fill:none;}
</style>
<g>
	<path class="st0" d="M527.678,207.843c-1.801-1.509-2.037-4.192-0.529-5.992l1.601-1.911c1.509-1.801,4.192-2.037,5.992-0.528
		l1.144,0.959c1.801,1.509,2.037,4.192,0.529,5.992l-1.601,1.911c-1.509,1.801-4.192,2.037-5.992,0.528L527.678,207.843z"/>
	<g>
		
			<rect x="503.672" y="161.66" transform="matrix(0.6423 -0.7665 0.7665 0.6423 40.2245 456.5056)" class="st1" width="11" height="47"/>
		
			<rect x="506.672" y="161.66" transform="matrix(0.6423 -0.7665 0.7665 0.6423 40.2245 456.5056)" class="st2" width="5" height="47"/>
		<polygon class="st3" points="487.55,174.374 494.835,165.68 481.774,162.135 		"/>
		<polygon class="st4" points="488.908,163.96 481.122,161.846 484.565,169.143 		"/>
	</g>
	<rect x="523.6" y="199.359" transform="matrix(0.6423 -0.7665 0.7665 0.6423 34.554 477.754)" class="st3" width="11" height="5"/>
</g>
<rect class="st5" width="574" height="413.255"/>
</svg>
